<?xml version="1.0" encoding="UTF-8" standalone="no"?>
<svg
   width="21mm"
   height="21mm"
   viewBox="0 0 21 21"
   version="1.1"
   id="svg8"
   xmlns="http://www.w3.org/2000/svg"
   xmlns:svg="http://www.w3.org/2000/svg"
   xmlns:rdf="http://www.w3.org/1999/02/22-rdf-syntax-ns#"
   xmlns:cc="http://creativecommons.org/ns#"
   xmlns:dc="http://purl.org/dc/elements/1.1/">
  <defs
     id="defs2">
    <marker
       style="overflow:visible"
       id="Arrow2Send"
       refX="0"
       refY="0"
       orient="auto">
      <path
         transform="matrix(-0.3,0,0,-0.3,0.69,0)"
         d="M 8.7185878,4.0337352 -2.2072895,0.01601326 8.7185884,-4.0017078 c -1.7454984,2.3720609 -1.7354408,5.6174519 -6e-7,8.035443 z"
         style="fill:context-stroke;fill-rule:evenodd;stroke:context-stroke;stroke-width:0.625;stroke-linejoin:round"
         id="path1530" />
    </marker>
    <marker
       style="overflow:visible"
       id="Arrow2Send-6"
       refX="0"
       refY="0"
       orient="auto">
      <path
         transform="matrix(-0.3,0,0,-0.3,0.69,0)"
         d="M 8.7185878,4.0337352 -2.2072895,0.01601326 8.7185884,-4.0017078 c -1.7454984,2.3720609 -1.7354408,5.6174519 -6e-7,8.035443 z"
         style="fill:context-stroke;fill-rule:evenodd;stroke:context-stroke;stroke-width:0.625;stroke-linejoin:round"
         id="path1530-7" />
    </marker>
  </defs>
  <metadata
     id="metadata5">
    <rdf:RDF>
      <cc:Work
         rdf:about="">
        <dc:format>image/svg+xml</dc:format>
        <dc:type
           rdf:resource="http://purl.org/dc/dcmitype/StillImage" />
      </cc:Work>
    </rdf:RDF>
  </metadata>
  <rect
     style="fill:#cccccc;fill-opacity:1;stroke:#404040;stroke-width:2.25242;stroke-linecap:round;stroke-linejoin:round;stroke-dasharray:none;stroke-opacity:1;paint-order:fill markers stroke"
     id="rect1-5"
     width="8.9278631"
     height="3.5445039"
     x="-12.922156"
     y="26.826105"
     transform="matrix(1,0,0.76951754,0.63862567,0,0)" />
  <rect
     style="fill:#cccccc;fill-opacity:1;stroke:#404040;stroke-width:2.25242;stroke-linecap:round;stroke-linejoin:round;stroke-dasharray:none;stroke-opacity:1;paint-order:fill markers stroke"
     id="rect1-6"
     width="8.9278631"
     height="3.5445039"
     x="-7.8122525"
     y="20.185707"
     transform="matrix(1,0,0.76951754,0.63862567,0,0)" />
  <rect
     style="fill:#cccccc;fill-opacity:1;stroke:#404040;stroke-width:2.25242;stroke-linecap:round;stroke-linejoin:round;stroke-dasharray:none;stroke-opacity:1;paint-order:fill markers stroke"
     id="rect1"
     width="8.9278631"
     height="3.5445039"
     x="-2.7023461"
     y="13.545305"
     transform="matrix(1,0,0.76951754,0.63862567,0,0)" />
  <path
     style="fill:none;fill-opacity:1;stroke:#008000;stroke-width:2.4;stroke-linecap:round;stroke-linejoin:round;stroke-dasharray:none;stroke-opacity:1;paint-order:fill markers stroke"
     d="M 6.2624996,18.104 V 1.6998333 M 1.5,5.9331665 6.2624997,1.6998333 11.025,5.9331665"
     id="path1" />
</svg>
