<?xml version="1.0" encoding="UTF-8" standalone="no"?>
<svg
   width="21mm"
   height="21mm"
   viewBox="0 0 21 21"
   version="1.1"
   id="svg8"
   xmlns="http://www.w3.org/2000/svg"
   xmlns:svg="http://www.w3.org/2000/svg"
   xmlns:rdf="http://www.w3.org/1999/02/22-rdf-syntax-ns#"
   xmlns:cc="http://creativecommons.org/ns#"
   xmlns:dc="http://purl.org/dc/elements/1.1/">
  <defs
     id="defs2">
    <marker
       style="overflow:visible"
       id="Arrow2Send"
       refX="0"
       refY="0"
       orient="auto">
      <path
         transform="matrix(-0.3,0,0,-0.3,0.69,0)"
         d="M 8.7185878,4.0337352 -2.2072895,0.01601326 8.7185884,-4.0017078 c -1.7454984,2.3720609 -1.7354408,5.6174519 -6e-7,8.035443 z"
         style="fill:context-stroke;fill-rule:evenodd;stroke:context-stroke;stroke-width:0.625;stroke-linejoin:round"
         id="path1530" />
    </marker>
    <marker
       style="overflow:visible"
       id="Arrow2Send-6"
       refX="0"
       refY="0"
       orient="auto">
      <path
         transform="matrix(-0.3,0,0,-0.3,0.69,0)"
         d="M 8.7185878,4.0337352 -2.2072895,0.01601326 8.7185884,-4.0017078 c -1.7454984,2.3720609 -1.7354408,5.6174519 -6e-7,8.035443 z"
         style="fill:context-stroke;fill-rule:evenodd;stroke:context-stroke;stroke-width:0.625;stroke-linejoin:round"
         id="path1530-7" />
    </marker>
  </defs>
  <metadata
     id="metadata5">
    <rdf:RDF>
      <cc:Work
         rdf:about="">
        <dc:format>image/svg+xml</dc:format>
        <dc:type
           rdf:resource="http://purl.org/dc/dcmitype/StillImage" />
      </cc:Work>
    </rdf:RDF>
  </metadata>
  <path
     style="fill:#efc600;fill-opacity:0.6;stroke:none;stroke-width:0.264583px;stroke-linecap:butt;stroke-linejoin:miter;stroke-opacity:1"
     d="m 4.8065148,3.4104162 11.1125002,-7e-7 -4.807409,6.5630382 c -0.164808,0.2249903 -0.514855,0.2645843 -0.79375,0.2645843 -0.278896,0 -0.6264136,-0.04147 -0.7937505,-0.2645842 C 8.7303546,8.9151209 4.8065148,3.4104162 4.8065148,3.4104162 Z"
     id="path6186" />
  <path
     style="fill:none;stroke:#808080;stroke-width:1;stroke-linecap:butt;stroke-linejoin:miter;stroke-miterlimit:4;stroke-dasharray:none;stroke-opacity:1"
     d="m 4.7616053,1.5067873 c 0,0 -0.2234833,1.181634 0.2645837,2.6458347 0.4880669,1.4642006 3.485628,3.1601224 4.2333325,5.2916653 0.1459647,0.4161144 0.1459651,0.9068027 0,1.3229167 -0.7477051,2.131543 -3.7452708,3.827463 -4.2333336,5.291666 -0.4880662,1.464201 -0.264583,2.645835 -0.264583,2.645835 l 11.1125001,-1e-6 c 0,0 0.223483,-1.181633 -0.264584,-2.645833 -0.488066,-1.4642 -3.485628,-3.160124 -4.233333,-5.291666 -0.145965,-0.416115 -0.145965,-0.9068033 0,-1.3229174 0.747705,-2.1315429 3.745264,-3.8274692 4.233334,-5.2916661 0.488067,-1.4641997 0.264583,-2.6458342 0.264583,-2.6458342 z"
     id="path1356" />
  <path
     style="fill:none;stroke:#808080;stroke-width:1;stroke-linecap:butt;stroke-linejoin:miter;stroke-miterlimit:4;stroke-dasharray:none;stroke-opacity:1"
     d="m 5.0261889,17.910954 10.5833331,0"
     id="path3755" />
  <path
     style="fill:none;stroke:#808080;stroke-width:1;stroke-linecap:butt;stroke-linejoin:miter;stroke-miterlimit:4;stroke-dasharray:none;stroke-opacity:1"
     d="m 5.0261887,2.3005375 10.5833333,3e-7"
     id="path3755-9" />
</svg>
