<?xml version="1.0" encoding="UTF-8" standalone="no"?>
<svg
   width="44.737934mm"
   height="44.653866mm"
   viewBox="0 0 44.737934 44.653865"
   version="1.1"
   id="svg8"
   xmlns:xlink="http://www.w3.org/1999/xlink"
   xmlns="http://www.w3.org/2000/svg"
   xmlns:svg="http://www.w3.org/2000/svg"
   xmlns:rdf="http://www.w3.org/1999/02/22-rdf-syntax-ns#"
   xmlns:cc="http://creativecommons.org/ns#"
   xmlns:dc="http://purl.org/dc/elements/1.1/">
  <defs
     id="defs2">
    <linearGradient
       id="linearGradient8824">
      <stop
         style="stop-color:#ff0000;stop-opacity:1;"
         offset="0"
         id="stop8820" />
      <stop
         style="stop-color:#ff0000;stop-opacity:0;"
         offset="1"
         id="stop8822" />
    </linearGradient>
    <linearGradient
       xlink:href="#linearGradient8824"
       id="linearGradient8826"
       x1="43.65625"
       y1="29.10417"
       x2="43.65625"
       y2="31.750004"
       gradientUnits="userSpaceOnUse"
       gradientTransform="matrix(-1.1665248,0,0,1.1665248,78.947995,-16.941757)" />
    <linearGradient
       xlink:href="#linearGradient8824"
       id="linearGradient9416"
       x1="14.552083"
       y1="15.875"
       x2="14.539412"
       y2="21.195051"
       gradientUnits="userSpaceOnUse"
       gradientTransform="matrix(-1,0,0,1,42.328862,0)" />
  </defs>
  <metadata
     id="metadata5">
    <rdf:RDF>
      <cc:Work
         rdf:about="">
        <dc:format>image/svg+xml</dc:format>
        <dc:type
           rdf:resource="http://purl.org/dc/dcmitype/StillImage" />
      </cc:Work>
    </rdf:RDF>
  </metadata>
  <path
     style="fill:#ffffff;fill-opacity:1;stroke:none;stroke-width:1.2;stroke-linecap:round;stroke-linejoin:round;stroke-dasharray:none;stroke-opacity:1;paint-order:fill markers stroke"
     d="M 7.9330289,14.552083 C 9.2559449,1.3229166 17.193445,1.3229167 21.162195,1.3229166 c 3.96875,-1e-7 11.887031,-0.0079 13.229166,13.2291664 C 35.592404,26.3976 31.745529,43.65625 21.162195,43.65625 10.578862,43.65625 6.7483129,26.399245 7.9330289,14.552083 Z"
     id="path4566" />
  <path
     style="fill:url(#linearGradient9416);fill-opacity:1;stroke:none;stroke-width:0.1;stroke-linecap:round;stroke-linejoin:round;stroke-dasharray:none;stroke-opacity:1;paint-order:markers fill stroke"
     d="m 21.150205,21.195051 c 0,0 0.01173,-13.6982588 0.01199,-19.8721343 10.199363,-0.202996 13.715666,6.0507144 13.229167,19.8437503 z"
     id="path8760" />
  <path
     style="fill:none;fill-opacity:1;stroke:#000000;stroke-width:3.5;stroke-linecap:round;stroke-linejoin:round;stroke-dasharray:none;stroke-opacity:1;paint-order:fill markers stroke"
     d="M 21.162195,15.764288 V 8.0482124"
     id="path8783" />
  <path
     style="fill:none;fill-opacity:1;stroke:#000000;stroke-width:1.2;stroke-linecap:round;stroke-linejoin:round;stroke-dasharray:none;stroke-opacity:1;paint-order:fill markers stroke"
     d="M 7.9330289,14.552083 C 9.2559449,1.3229166 17.193445,1.3229167 21.162195,1.3229166 c 3.96875,-1e-7 11.887031,-0.0079 13.229166,13.2291664 C 35.592404,26.3976 31.745529,43.65625 21.162195,43.65625 10.578862,43.65625 6.7483129,26.399245 7.9330289,14.552083 Z"
     id="path8787" />
</svg>
