<?xml version="1.0" encoding="UTF-8" standalone="no"?>
<svg
   width="21mm"
   height="21.10833mm"
   viewBox="0 0 21 21.10833"
   version="1.1"
   id="svg8"
   xmlns="http://www.w3.org/2000/svg"
   xmlns:svg="http://www.w3.org/2000/svg"
   xmlns:rdf="http://www.w3.org/1999/02/22-rdf-syntax-ns#"
   xmlns:cc="http://creativecommons.org/ns#"
   xmlns:dc="http://purl.org/dc/elements/1.1/">
  <defs
     id="defs2" />
  <metadata
     id="metadata5">
    <rdf:RDF>
      <cc:Work
         rdf:about="">
        <dc:format>image/svg+xml</dc:format>
        <dc:type
           rdf:resource="http://purl.org/dc/dcmitype/StillImage" />
      </cc:Work>
    </rdf:RDF>
  </metadata>
  <g
     id="layer1"
     transform="translate(-31.441403,-20.402083)"
     style="fill-opacity:1;fill:#ff9a00">
    <g
       id="g844"
       transform="rotate(-45.179951,42.333332,32.822916)"
       style="fill-opacity:1;fill:#ff9a00">
      <path
         style="fill:#ff9a00;fill-opacity:1;stroke:#000000;stroke-width:1;stroke-linecap:round;stroke-linejoin:round;stroke-miterlimit:4;stroke-dasharray:none;stroke-opacity:1"
         d="m 36.690219,30.46058 c -2.353667,3.446808 -0.408486,4.481491 -1.911063,6.347668 l 6.154505,6.193286 c 1.876753,-1.865001 2.120196,-1.885594 4.013792,-3.383618 0.946798,-0.749012 2.529671,-2.018308 3.570736,-3.110068 0.789689,-0.828143 1.508209,-1.847715 0.994043,-2.440233 -0.522135,-0.601701 -1.478679,-0.423003 -2.788874,0.915256 1.316794,-1.294883 2.591859,-2.914548 1.842331,-3.657265 -0.754042,-0.747191 -1.778759,-0.09541 -3.331981,1.407511 1.633977,-1.499761 2.532126,-2.963033 1.903046,-3.587917 -0.633249,-0.629025 -1.666288,-0.365831 -3.768048,1.711163 4.970779,-4.953011 6.779565,-7.053428 6.033564,-7.804129 -0.746,-0.750701 -2.929778,1.07979 -7.635342,5.722493 -0.355325,0.353099 -1.231526,1.267511 -1.751884,1.578836 -0.769659,0.460479 -0.74953,0.525107 0.673778,-0.719098 1.245417,-1.0887 2.264064,-2.340843 1.045661,-2.793494 -0.286834,-0.106563 -0.742688,-0.08873 -1.428485,0.233958 -1.242945,0.584843 -2.357456,1.54291 -3.615779,3.385651 z"
         id="path932" />
    </g>
  </g>
</svg>
