<?xml version="1.0" encoding="UTF-8" standalone="no"?>
<svg
   width="44.737934mm"
   height="44.653866mm"
   viewBox="0 0 44.737934 44.653865"
   version="1.1"
   id="svg8"
   xmlns="http://www.w3.org/2000/svg"
   xmlns:svg="http://www.w3.org/2000/svg"
   xmlns:rdf="http://www.w3.org/1999/02/22-rdf-syntax-ns#"
   xmlns:cc="http://creativecommons.org/ns#"
   xmlns:dc="http://purl.org/dc/elements/1.1/">
  <defs
     id="defs2" />
  <metadata
     id="metadata5">
    <rdf:RDF>
      <cc:Work
         rdf:about="">
        <dc:format>image/svg+xml</dc:format>
        <dc:type
           rdf:resource="http://purl.org/dc/dcmitype/StillImage" />
      </cc:Work>
    </rdf:RDF>
  </metadata>
  <path
     style="fill:none;fill-opacity:0.99;stroke:#ff0000;stroke-width:3.41227;stroke-linecap:round;stroke-linejoin:round;stroke-dasharray:none;stroke-opacity:0.99;paint-order:fill markers stroke"
     d="m 2.0083643,32.968235 c 4.3519154,5.167859 9.5537057,1.229609 10.6464577,-4.218237 1.092751,-5.447846 -5.3766343,-4.717273 -5.0531199,1.532783 0.3235144,6.250056 2.2859602,9.857603 5.5354179,11.307361 3.249458,1.449757 7.88789,0.297309 11.949104,-2.283978 4.061215,-2.581287 7.803541,-8.268883 10.489656,-9.876323 2.686116,-1.607441 4.617072,-1.594008 6.983634,-0.257227"
     id="path19257" />
  <path
     d="M 8.9888954,9.2345936 C 9.1868008,8.4562743 9.6284996,7.6862165 10.086062,6.8375346 10.661897,5.8081492 11.25359,4.7001388 11.483542,3.5600765 11.776928,2.1055144 11.046853,1.2627561 9.9461027,1.0407339 8.8453532,0.81871173 7.8301547,1.1867113 7.5209096,2.7198984 7.1244415,4.685523 8.0966497,6.5590041 7.8409045,9.0439547 6.3559619,8.0898509 4.9830337,5.9718969 3.1363495,4.9857414 1.839706,4.3150888 0.80864886,4.7617133 0.28798548,5.7204032 -0.24060714,6.7184055 -0.17158323,7.7960358 1.195756,8.5218597 c 0.9193774,0.512734 1.9180483,0.6323431 2.987415,0.8071234 0.9986709,0.119609 2.075967,0.2550769 3.168453,0.7209029 -1.3389649,1.161845 -3.7704159,1.857863 -5.2121284,3.326278 -1.0713725,1.05217 -0.9237235,2.145659 -0.146406,2.957034 0.7773176,0.811375 1.8387548,1.025468 2.9573692,-0.05808 1.4337828,-1.429102 1.6495475,-3.512999 3.2650368,-5.437305 0.6894258,1.652796 0.6381719,4.138081 1.61831,5.97225 0.7135484,1.330366 1.8142974,1.552388 2.7825884,1.01128 1.007604,-0.533179 1.56758,-1.483939 0.822649,-2.861548 C 12.529601,13.180793 10.588098,12.461895 9.2544824,10.351871 11.008688,10.173842 13.390558,10.94065 15.436144,10.535009 16.88378,10.254233 17.412372,9.2562303 17.225411,8.1548118 16.999137,7.0454642 16.253203,6.2813309 14.726943,6.5462487 12.728597,6.9205058 11.381034,8.5306464 8.9888954,9.2345936 Z"
     style="font-size:40.1042px;line-height:1.25;font-family:'Libertinus Mono';-inkscape-font-specification:'Libertinus Mono, Normal';letter-spacing:0px;fill:#ff0000;fill-opacity:0.99;stroke-width:0.264583"
     id="path1273"
     transform="translate(0.82989899,-0.78645824)" />
  <g
     id="g1495"
     transform="translate(0.82989899,-0.78645823)"
     style="display:inline">
    <path
       style="fill:#ff0000;fill-opacity:1;stroke:none;stroke-width:0.5;stroke-linecap:butt;stroke-linejoin:miter;stroke-miterlimit:4;stroke-dasharray:none;stroke-opacity:1"
       d="M 31.978845,1.654789 16.266041,26.152957 14.691623,40.85958 27.401572,33.295141 43.114376,8.796972"
       id="path835" />
    <path
       style="fill:#7a492c;fill-opacity:1;stroke:none;stroke-width:0.265;stroke-linecap:butt;stroke-linejoin:miter;stroke-miterlimit:4;stroke-dasharray:none;stroke-opacity:1"
       d="m 16.175916,26.895395 -0.711578,6.838289 5.361489,3.505306 5.921975,-3.554883 z"
       id="path867" />
    <path
       id="path837-4-3"
       style="fill:#7a492c;fill-rule:evenodd;stroke:#000000;stroke-linecap:round;stroke-linejoin:round"
       transform="rotate(32.67558)"
       d="m 37.716382,19.845571 a 3.3248177,0.66496354 0 0 1 -3.318386,0.572651 3.3248177,0.66496354 0 0 1 -3.273642,-0.582861" />
    <path
       style="fill:none;fill-opacity:1;stroke:#000000;stroke-width:1;stroke-linecap:butt;stroke-linejoin:miter;stroke-miterlimit:4;stroke-dasharray:none;stroke-opacity:1"
       d="M 31.978845,1.654789 16.266041,26.152957 14.691623,40.85958 27.401572,33.295141 43.114376,8.796972"
       id="path865" />
    <ellipse
       style="display:inline;fill:#ff0000;fill-opacity:1;fill-rule:evenodd;stroke:#000000;stroke-width:1;stroke-linecap:round;stroke-linejoin:round;stroke-miterlimit:4;stroke-dasharray:none"
       id="path837-6"
       transform="rotate(32.67558)"
       cx="34.425362"
       cy="-15.843848"
       rx="6.614583"
       ry="1.3229166" />
    <path
       id="path837-7"
       style="fill:#ff0000;fill-rule:evenodd;stroke:#000000;stroke-linecap:round;stroke-linejoin:round"
       transform="rotate(32.67558)"
       d="m 40.970729,13.360923 a 6.614583,1.3229166 0 0 1 -6.873495,1.137728 6.614583,1.3229166 0 0 1 -6.285939,-1.266373" />
    <path
       style="fill:none;fill-opacity:1;stroke:#000000;stroke-width:1;stroke-linecap:butt;stroke-linejoin:miter;stroke-miterlimit:4;stroke-dasharray:none;stroke-opacity:1"
       d="M 34.811574,4.843415 19.09877,29.341583 M 23.143129,31.914589 38.855933,7.41642"
       id="path865-7" />
  </g>
</svg>
