<?xml version="1.0" encoding="UTF-8" standalone="no"?>
<svg
   width="44.737934mm"
   height="44.653866mm"
   viewBox="0 0 44.737934 44.653865"
   version="1.1"
   id="svg8"
   sodipodi:docname="fixed-width-pen-filled.svg"
   inkscape:version="1.1.1 (3bf5ae0d25, 2021-09-20, custom)"
   xmlns:inkscape="http://www.inkscape.org/namespaces/inkscape"
   xmlns:sodipodi="http://sodipodi.sourceforge.net/DTD/sodipodi-0.dtd"
   xmlns="http://www.w3.org/2000/svg"
   xmlns:svg="http://www.w3.org/2000/svg"
   xmlns:rdf="http://www.w3.org/1999/02/22-rdf-syntax-ns#"
   xmlns:cc="http://creativecommons.org/ns#"
   xmlns:dc="http://purl.org/dc/elements/1.1/">
  <defs
     id="defs2">
    <inkscape:path-effect
       effect="powerstroke"
       id="path-effect8097"
       is_visible="true"
       lpeversion="1"
       offset_points="2.4424511,0.062359846 | 4.2461552,0.077472588 | 14.466751,0.1472927 | 18.291538,0.12850165"
       not_jump="true"
       sort_points="true"
       interpolator_type="CentripetalCatmullRom"
       interpolator_beta="0.75"
       start_linecap_type="round"
       linejoin_type="spiro"
       miter_limit="4"
       scale_width="1"
       end_linecap_type="round" />
    <inkscape:path-effect
       effect="simplify"
       id="path-effect8095"
       is_visible="true"
       lpeversion="1"
       steps="1"
       threshold="0.0028332064"
       smooth_angles="0"
       helper_size="0"
       simplify_individual_paths="false"
       simplify_just_coalesce="false"
       step="1" />
    <inkscape:path-effect
       effect="powerstroke"
       id="path-effect1072"
       is_visible="true"
       lpeversion="1"
       offset_points="1.3962772,0.030535997 | 1.7614668,0.015007913 | 4.7351871,0.09548213 | 10.191321,0.057959721"
       sort_points="true"
       interpolator_type="CentripetalCatmullRom"
       interpolator_beta="0.75"
       start_linecap_type="round"
       linejoin_type="spiro"
       miter_limit="4"
       scale_width="1"
       end_linecap_type="round" />
    <inkscape:path-effect
       effect="simplify"
       id="path-effect1070"
       is_visible="true"
       lpeversion="1"
       steps="1"
       threshold="0.0028332064"
       smooth_angles="0"
       helper_size="0"
       simplify_individual_paths="false"
       simplify_just_coalesce="false"
       step="1" />
    <inkscape:path-effect
       effect="fill_between_many"
       method="originald"
       linkedpaths="#path9548,0,1|"
       id="path-effect9550" />
  </defs>
  <sodipodi:namedview
     id="base"
     pagecolor="#ffffff"
     bordercolor="#666666"
     borderopacity="1.0"
     inkscape:pageopacity="0.0"
     inkscape:pageshadow="2"
     inkscape:zoom="3.539576"
     inkscape:cx="56.927722"
     inkscape:cy="99.30568"
     inkscape:document-units="mm"
     inkscape:current-layer="layer1"
     inkscape:document-rotation="0"
     showgrid="false"
     inkscape:snap-global="false"
     showguides="false"
     inkscape:window-width="1920"
     inkscape:window-height="1032"
     inkscape:window-x="0"
     inkscape:window-y="0"
     inkscape:window-maximized="1"
     inkscape:pagecheckerboard="0">
    <inkscape:grid
       type="xygrid"
       id="grid833"
       originx="-30.369293"
       originy="-13.852398" />
  </sodipodi:namedview>
  <metadata
     id="metadata5">
    <rdf:RDF>
      <cc:Work
         rdf:about="">
        <dc:format>image/svg+xml</dc:format>
        <dc:type
           rdf:resource="http://purl.org/dc/dcmitype/StillImage" />
      </cc:Work>
    </rdf:RDF>
  </metadata>
  <g
     inkscape:label="Layer 1"
     inkscape:groupmode="layer"
     id="layer1"
     transform="translate(-30.369294,-13.852401)">
    <path
       inkscape:original-d=""
       inkscape:path-effect="#path-effect9550"
       d="m 37.540426,31.069535 c -0.753588,-0.0076 -1.506687,0.06621 -2.245857,0.226343 -0.736145,0.214521 -1.027705,0.256223 -1.708423,0.631486 -0.74483,0.410606 -1.374891,1.013646 -1.823145,1.735294 -0.130081,0.209419 -0.219053,0.441669 -0.328662,0.662492 -0.224227,0.638619 -0.311711,0.804835 -0.430465,1.485181 -0.155292,0.889674 -0.164123,1.80831 0.01757,2.695442 0.06057,0.295712 0.165766,0.580478 0.248564,0.870748 0.125354,0.283215 0.23103,0.575704 0.375688,0.849561 0.703975,1.332716 1.870814,2.341819 3.061312,3.225643 0.698177,0.472041 0.907146,0.632617 1.642276,1.048515 -0.125709,0.122589 -0.251372,0.244975 -0.376204,0.368454 -0.52251,0.5261 -1.057593,1.04853 -1.491382,1.653127 -0.08891,0.123915 -0.169405,0.253606 -0.254248,0.380338 -0.402005,0.648277 -0.717152,1.355358 -0.879016,2.103231 -0.03288,0.151916 -0.05269,0.306224 -0.07906,0.459404 -0.09405,0.764106 -0.02739,1.539272 0.171566,2.282032 0.03885,0.145047 0.08827,0.286903 0.132292,0.430463 0.19537,0.556107 0.457023,1.090907 0.808736,1.565797 0.23738,0.320516 0.340246,0.413506 0.609265,0.699182 0.442923,0.436931 0.952317,0.796137 1.507401,1.075905 0.30109,0.151754 0.458561,0.207896 0.767395,0.331761 0.819062,0.31787 1.691293,0.433064 2.560051,0.515731 0.880424,0.06406 1.763688,0.03053 2.6448,0.0031 0.925685,-0.03164 1.851582,-0.0617 2.777091,-0.09819 1.068634,-0.03855 2.135156,-0.120213 3.199288,-0.22376 1.105929,-0.114726 2.206154,-0.27441 3.307808,-0.423231 1.152749,-0.15491 2.309907,-0.277502 3.471623,-0.336412 1.08246,-0.0603 2.163783,0.0141 3.232877,0.182936 0.834335,0.152598 1.647748,0.398885 2.44688,0.679545 0.757097,0.270936 1.477505,0.629274 2.213819,0.949812 0.845042,0.355018 1.721586,0.627044 2.605008,0.867648 0.558824,0.147 1.12431,0.273013 1.69912,0.338479 0.415692,0.04734 0.501335,0.04216 0.915191,0.0553 0.714991,0.0064 1.427477,-0.09511 2.10013,-0.343133 0.137875,-0.05084 0.271494,-0.112625 0.40721,-0.168981 0.903544,-0.432486 1.534027,-1.194427 2.11305,-1.984375 0.494567,-0.67922 0.838292,-1.443152 1.119311,-2.230356 0.227227,-0.693878 0.347634,-1.418034 0.374653,-2.147154 0.006,-0.161158 0.0038,-0.322953 0.0057,-0.484209 -0.0071,-0.65768 -0.09396,-1.311341 -0.270785,-1.9451 -0.108167,-0.387673 -0.173495,-0.537435 -0.315227,-0.916223 -0.356376,-0.860047 -0.799807,-1.682025 -1.257287,-2.491838 -0.430408,-0.755835 -0.946772,-1.45678 -1.481564,-2.140955 -0.53817,-0.698704 -1.221785,-1.248135 -1.940449,-1.748214 -0.753676,-0.503581 -1.596466,-0.846507 -2.449464,-1.140499 -0.744302,-0.225381 -1.501741,-0.405162 -2.258259,-0.58446 -0.627359,-0.140694 -1.254246,-0.284671 -1.888257,-0.392224 -0.706387,-0.108223 -1.420394,-0.127723 -2.133203,-0.102319 -0.700598,0.05706 -1.395698,0.169278 -2.089796,0.278019 -0.214862,0.02837 -0.427754,0.06434 -0.64027,0.104386 -0.440862,-0.951472 -1.89237,-1.346287 -2.685108,-0.111621 -0.316751,0.422992 -0.721211,0.764639 -1.130163,1.09399 -0.81634,0.601713 -1.73752,1.04531 -2.67839,1.415933 -0.262651,0.103463 -0.529904,0.194869 -0.794783,0.292489 -1.349832,0.463267 -2.738127,0.8309 -4.158919,0.991156 -0.258226,0.02913 -0.517757,0.04375 -0.776697,0.06563 -1.081929,0.05876 -2.163841,-0.01061 -3.228743,-0.208256 0.0011,-8.02e-4 0.002,-0.0018 0.0031,-0.0026 0.834415,-0.66548 1.677508,-1.330812 2.381767,-2.138371 0.303617,-0.370634 0.489125,-0.575227 0.748791,-0.984954 0.438227,-0.691473 0.716871,-1.455515 0.842326,-2.263944 0.05581,-0.543405 0.104957,-0.772902 0.05426,-1.328084 -0.06693,-0.73298 -0.293038,-1.441821 -0.679544,-2.070158 -0.140285,-0.22806 -0.314533,-0.433395 -0.471807,-0.65009 -0.502164,-0.495293 -0.561904,-0.596709 -1.1529,-1.002006 -0.991655,-0.680062 -2.120841,-1.119183 -3.268018,-1.456758 -0.752029,-0.18736 -1.072506,-0.288052 -1.845882,-0.395325 -0.449339,-0.06233 -0.90177,-0.09621 -1.353923,-0.100769 z"
       id="path9552"
       style="fill:#ff0000;fill-opacity:0.5;stroke:none;stroke-opacity:1" />
    <path
       id="path9548"
       style="fill:#ff0000;fill-opacity:1;stroke:none;stroke-width:3;stroke-linecap:round;stroke-linejoin:round"
       d="m 37.540426,31.069535 c -0.753588,-0.0076 -1.506687,0.06621 -2.245857,0.226343 -0.736145,0.214521 -1.027705,0.256223 -1.708423,0.631486 -0.74483,0.410606 -1.374891,1.013646 -1.823145,1.735294 -0.130081,0.209419 -0.219053,0.441669 -0.328662,0.662492 -0.224227,0.638619 -0.311711,0.804835 -0.430465,1.485181 -0.155292,0.889674 -0.164123,1.80831 0.01757,2.695442 0.06057,0.295712 0.165766,0.580478 0.248564,0.870748 0.125354,0.283215 0.23103,0.575704 0.375688,0.849561 0.703975,1.332716 1.870814,2.341819 3.061312,3.225643 0.698177,0.472041 0.907146,0.632617 1.642276,1.048515 -0.125709,0.122589 -0.251372,0.244975 -0.376204,0.368454 -0.52251,0.5261 -1.057593,1.04853 -1.491382,1.653127 -0.08891,0.123915 -0.169405,0.253606 -0.254248,0.380338 -0.402005,0.648277 -0.717152,1.355358 -0.879016,2.103231 -0.03288,0.151916 -0.05269,0.306224 -0.07906,0.459404 -0.09405,0.764106 -0.02739,1.539272 0.171566,2.282032 0.03885,0.145047 0.08827,0.286903 0.132292,0.430463 0.19537,0.556107 0.457023,1.090907 0.808736,1.565797 0.23738,0.320516 0.340246,0.413506 0.609265,0.699182 0.442923,0.436931 0.952317,0.796137 1.507401,1.075905 0.30109,0.151754 0.458561,0.207896 0.767395,0.331761 0.819062,0.31787 1.691293,0.433064 2.560051,0.515731 0.880424,0.06406 1.763688,0.03053 2.6448,0.0031 0.925685,-0.03164 1.851582,-0.0617 2.777091,-0.09819 1.068634,-0.03855 2.135156,-0.120213 3.199288,-0.22376 1.105929,-0.114726 2.206154,-0.27441 3.307808,-0.423231 1.152749,-0.15491 2.309907,-0.277502 3.471623,-0.336412 1.08246,-0.0603 2.163783,0.0141 3.232877,0.182936 0.834335,0.152598 1.647748,0.398885 2.44688,0.679545 0.757097,0.270936 1.477505,0.629274 2.213819,0.949812 0.845042,0.355018 1.721586,0.627044 2.605008,0.867648 0.558824,0.147 1.12431,0.273013 1.69912,0.338479 0.415692,0.04734 0.501335,0.04216 0.915191,0.0553 0.714991,0.0064 1.427477,-0.09511 2.10013,-0.343133 0.137875,-0.05084 0.271494,-0.112625 0.40721,-0.168981 0.903544,-0.432486 1.534027,-1.194427 2.11305,-1.984375 0.494567,-0.67922 0.838292,-1.443152 1.119311,-2.230356 0.227227,-0.693878 0.347634,-1.418034 0.374653,-2.147154 0.006,-0.161158 0.0038,-0.322953 0.0057,-0.484209 -0.0071,-0.65768 -0.09396,-1.311341 -0.270785,-1.9451 -0.108167,-0.387673 -0.173495,-0.537435 -0.315227,-0.916223 -0.356376,-0.860047 -0.799807,-1.682025 -1.257287,-2.491838 -0.430408,-0.755835 -0.946772,-1.45678 -1.481564,-2.140955 -0.53817,-0.698704 -1.221785,-1.248135 -1.940449,-1.748214 -0.753676,-0.503581 -1.596466,-0.846507 -2.449464,-1.140499 -0.744302,-0.225381 -1.501741,-0.405162 -2.258259,-0.58446 -0.627359,-0.140694 -1.254246,-0.284671 -1.888257,-0.392224 -0.706387,-0.108223 -1.420394,-0.127723 -2.133203,-0.102319 -0.700598,0.05706 -1.395698,0.169278 -2.089796,0.278019 -0.214862,0.02837 -0.427754,0.06434 -0.64027,0.104386 -0.440862,-0.951472 -1.89237,-1.346287 -2.685108,-0.111621 -0.316751,0.422992 -0.721211,0.764639 -1.130163,1.09399 -0.81634,0.601713 -1.73752,1.04531 -2.67839,1.415933 -0.262651,0.103463 -0.529904,0.194869 -0.794783,0.292489 -1.349832,0.463267 -2.738127,0.8309 -4.158919,0.991156 -0.258226,0.02913 -0.517757,0.04375 -0.776697,0.06563 -1.081929,0.05876 -2.163841,-0.01061 -3.228743,-0.208256 0.0011,-8.02e-4 0.002,-0.0018 0.0031,-0.0026 0.834415,-0.66548 1.677508,-1.330812 2.381767,-2.138371 0.303617,-0.370634 0.489125,-0.575227 0.748791,-0.984954 0.438227,-0.691473 0.716871,-1.455515 0.842326,-2.263944 0.05581,-0.543405 0.104957,-0.772902 0.05426,-1.328084 -0.06693,-0.73298 -0.293038,-1.441821 -0.679544,-2.070158 -0.140285,-0.22806 -0.314533,-0.433395 -0.471807,-0.65009 -0.502164,-0.495293 -0.561904,-0.596709 -1.1529,-1.002006 -0.991655,-0.680062 -2.120841,-1.119183 -3.268018,-1.456758 -0.752029,-0.18736 -1.072506,-0.288052 -1.845882,-0.395325 -0.449339,-0.06233 -0.90177,-0.09621 -1.353923,-0.100769 z m -0.198437,2.996716 c 0.41829,-0.0047 0.837133,0.02573 1.251603,0.08888 0.56197,0.08563 0.85815,0.177164 1.4118,0.31936 0.976478,0.313887 1.999595,0.667928 2.766239,1.381311 0.08941,0.0832 0.165494,0.179744 0.248047,0.269751 0.145658,0.236878 0.265931,0.493221 0.307475,0.771012 0.04096,0.273882 -0.0074,0.554947 -0.04806,0.824756 -0.06047,0.292267 -0.143339,0.583183 -0.288871,0.845943 -0.169982,0.306907 -0.409209,0.574202 -0.633553,0.840776 -0.58194,0.638804 -1.26793,1.169362 -1.941484,1.706355 -0.556012,0.410178 -1.10557,0.827789 -1.645894,1.257805 -0.342462,-0.157117 -0.678135,-0.328956 -1.00614,-0.517281 -0.619823,-0.355875 -0.781484,-0.483145 -1.370459,-0.885217 -0.833723,-0.64173 -1.718435,-1.335391 -2.186947,-2.30787 -0.06955,-0.144364 -0.114081,-0.299809 -0.171049,-0.449585 -0.0387,-0.161767 -0.0904,-0.320934 -0.116272,-0.485241 -0.102854,-0.653189 -0.02103,-1.353917 0.180868,-1.980241 0.04328,-0.134268 0.102386,-0.262796 0.153479,-0.394291 0.05834,-0.103958 0.105409,-0.215468 0.175183,-0.312126 0.05441,-0.07538 0.124718,-0.138337 0.194303,-0.199988 0.465851,-0.412725 0.882674,-0.505186 1.471745,-0.652673 0.412283,-0.07695 0.829696,-0.116786 1.247986,-0.12144 z m 23.61923,8.46305 c 0.381698,-0.002 0.76318,0.01871 1.14205,0.07235 0.568709,0.09333 1.128948,0.230519 1.691886,0.352949 0.662604,0.156731 1.32534,0.315992 1.979724,0.504362 0.592978,0.200083 1.182502,0.430324 1.712039,0.76843 0.473347,0.32509 0.932508,0.671493 1.286227,1.130681 0.443923,0.56548 0.874043,1.144381 1.232482,1.768882 0.383495,0.676341 0.754086,1.363186 1.062469,2.077394 0.225287,0.583793 0.395456,1.142119 0.391189,1.776635 -2.65e-4,0.560491 -0.03368,1.122614 -0.210323,1.659329 -0.17549,0.513848 -0.39647,1.012058 -0.713134,1.456243 -0.257918,0.35605 -0.516411,0.730086 -0.872299,0.995804 -0.394809,0.182521 -0.806583,0.281517 -1.244884,0.269235 -0.647483,-0.01175 -1.284689,-0.110881 -1.907894,-0.289904 -0.744067,-0.201025 -1.481841,-0.428482 -2.194698,-0.723471 -0.804129,-0.348554 -1.590476,-0.741471 -2.41949,-1.030428 -0.972066,-0.338764 -1.961319,-0.634868 -2.977081,-0.811837 -0.197824,-0.03027 -0.394838,-0.0648 -0.593243,-0.09095 -1.078077,-0.142105 -2.168993,-0.17103 -3.254583,-0.124024 -1.243979,0.06567 -2.48372,0.191331 -3.71812,0.359151 -1.06506,0.14388 -2.128663,0.299395 -3.197737,0.411345 -1.006416,0.09867 -2.015454,0.174644 -3.026172,0.211357 -0.917161,0.03621 -1.834435,0.06625 -2.75177,0.09767 -0.757128,0.02355 -1.515809,0.05477 -2.272729,0.0083 -0.585595,-0.05325 -1.178376,-0.114853 -1.734262,-0.318329 -0.438628,-0.170373 -0.869586,-0.358944 -1.212329,-0.692462 -0.109145,-0.110585 -0.20851,-0.205274 -0.305407,-0.32608 -0.183575,-0.22887 -0.315219,-0.493141 -0.418579,-0.76636 -0.143029,-0.431549 -0.246147,-0.87883 -0.203089,-1.336869 0.06614,-0.498874 0.234691,-0.958955 0.501778,-1.386996 0.371043,-0.58153 0.859627,-1.068551 1.349789,-1.550294 0.412349,-0.408064 0.829214,-0.811122 1.260388,-1.198893 0.167425,0.05344 0.33512,0.10524 0.504362,0.153479 0.806182,0.216683 1.082267,0.307822 1.909961,0.45992 1.324174,0.243335 2.670159,0.324287 4.014225,0.243914 0.313107,-0.0281 0.627248,-0.04765 0.939478,-0.08423 1.631968,-0.191225 3.227835,-0.61159 4.778002,-1.148252 0.308058,-0.114779 0.619038,-0.223142 0.924492,-0.344681 1.202799,-0.478597 2.37001,-1.065853 3.402376,-1.852599 0.138606,-0.114126 0.279681,-0.22588 0.416512,-0.342099 0.324423,0.203745 0.751693,0.286822 1.260905,0.159163 0.444248,-0.11199 0.891209,-0.206338 1.346171,-0.264583 0.578344,-0.09074 1.157766,-0.181486 1.739945,-0.243912 0.127233,-0.0053 0.25414,-0.0086 0.381373,-0.0093 z" />
    <g
       id="g14170">
      <path
         style="fill:#ff0000;fill-opacity:1;stroke:none;stroke-width:0.5;stroke-linecap:butt;stroke-linejoin:miter;stroke-miterlimit:4;stroke-dasharray:none;stroke-opacity:1"
         d="M 62.041675,14.62 46.328871,39.118168 44.754453,53.824791 57.464402,46.260352 73.177206,21.762183"
         id="path835" />
      <path
         style="fill:#7a492c;fill-opacity:1;stroke:none;stroke-width:0.265;stroke-linecap:butt;stroke-linejoin:miter;stroke-miterlimit:4;stroke-dasharray:none;stroke-opacity:1"
         d="m 46.238746,39.860606 -0.711578,6.838289 5.361489,3.505306 5.921975,-3.554883 z"
         id="path867" />
      <circle
         style="fill:#ff0000;fill-opacity:1;fill-rule:evenodd;stroke:#000000;stroke-width:1;stroke-linecap:round;stroke-linejoin:round;stroke-miterlimit:4;stroke-dasharray:none"
         id="path837"
         sodipodi:type="arc"
         sodipodi:cx="66.72496"
         sodipodi:cy="7.860292"
         sodipodi:rx="6.614583"
         sodipodi:ry="1.3229166"
         sodipodi:start="0.1392423"
         sodipodi:end="3.1000315"
         sodipodi:arc-type="arc"
         sodipodi:open="true"
         d="m 73.275524,8.0439032 a 6.614583,1.3229166 0 0 1 -6.873495,1.1377279 6.614583,1.3229166 0 0 1 -6.28594,-1.266373"
         transform="rotate(32.67558)" />
      <circle
         style="fill:#7a492c;fill-opacity:1;fill-rule:evenodd;stroke:#000000;stroke-width:1;stroke-linecap:round;stroke-linejoin:round;stroke-miterlimit:4;stroke-dasharray:none"
         id="path837-4"
         sodipodi:type="arc"
         sodipodi:cx="66.728539"
         sodipodi:cy="14.436258"
         sodipodi:rx="3.3248177"
         sodipodi:ry="0.66496354"
         sodipodi:start="0.1392423"
         sodipodi:end="3.0178387"
         sodipodi:arc-type="arc"
         sodipodi:open="true"
         d="M 70.021177,14.52855 A 3.3248177,0.66496354 0 0 1 66.702791,15.101202 3.3248177,0.66496354 0 0 1 63.429148,14.51834"
         transform="rotate(32.67558)" />
      <path
         style="fill:none;fill-opacity:1;stroke:#000000;stroke-width:1;stroke-linecap:butt;stroke-linejoin:miter;stroke-miterlimit:4;stroke-dasharray:none;stroke-opacity:1"
         d="M 62.041675,14.62 46.328871,39.118168 44.754453,53.824791 57.464402,46.260352 73.177206,21.762183"
         id="path865" />
      <path
         style="fill:none;fill-opacity:1;stroke:#000000;stroke-width:1;stroke-linecap:butt;stroke-linejoin:miter;stroke-miterlimit:4;stroke-dasharray:none;stroke-opacity:1"
         d="M 64.874404,17.808626 49.1616,42.306794 M 53.205959,44.8798 68.918763,20.381631"
         id="path865-7"
         sodipodi:nodetypes="cccc" />
      <ellipse
         style="fill:#ff0000;fill-opacity:1;fill-rule:evenodd;stroke:#000000;stroke-width:1;stroke-linecap:round;stroke-linejoin:round;stroke-miterlimit:4;stroke-dasharray:none"
         id="path837-6"
         transform="rotate(32.67558)"
         cx="66.730156"
         cy="-21.160868"
         rx="6.614583"
         ry="1.3229166" />
    </g>
  </g>
</svg>
