<?xml version="1.0" encoding="UTF-8" standalone="no"?>
<svg
   width="44.737934mm"
   height="44.653866mm"
   viewBox="0 0 44.737934 44.653865"
   version="1.1"
   id="svg8"
   sodipodi:docname="fixed-width-pen.svg"
   inkscape:version="1.1.2 (0a00cf5339, 2022-02-04)"
   xmlns:inkscape="http://www.inkscape.org/namespaces/inkscape"
   xmlns:sodipodi="http://sodipodi.sourceforge.net/DTD/sodipodi-0.dtd"
   xmlns="http://www.w3.org/2000/svg"
   xmlns:svg="http://www.w3.org/2000/svg"
   xmlns:rdf="http://www.w3.org/1999/02/22-rdf-syntax-ns#"
   xmlns:cc="http://creativecommons.org/ns#"
   xmlns:dc="http://purl.org/dc/elements/1.1/">
  <defs
     id="defs2">
    <inkscape:path-effect
       effect="powerstroke"
       id="path-effect1072"
       is_visible="true"
       lpeversion="1"
       offset_points="1.3962772,0.030535997 | 1.7614668,0.015007913 | 4.7351871,0.09548213 | 10.191321,0.057959721"
       sort_points="true"
       interpolator_type="CentripetalCatmullRom"
       interpolator_beta="0.75"
       start_linecap_type="round"
       linejoin_type="spiro"
       miter_limit="4"
       scale_width="1"
       end_linecap_type="round" />
    <inkscape:path-effect
       effect="simplify"
       id="path-effect1070"
       is_visible="true"
       lpeversion="1"
       steps="1"
       threshold="0.0028332064"
       smooth_angles="0"
       helper_size="0"
       simplify_individual_paths="false"
       simplify_just_coalesce="false"
       step="1" />
  </defs>
  <sodipodi:namedview
     id="base"
     pagecolor="#ffffff"
     bordercolor="#666666"
     borderopacity="1.0"
     inkscape:pageopacity="0.0"
     inkscape:pageshadow="2"
     inkscape:zoom="4.0171824"
     inkscape:cx="90.735238"
     inkscape:cy="89.241654"
     inkscape:document-units="mm"
     inkscape:current-layer="layer1"
     inkscape:document-rotation="0"
     showgrid="false"
     inkscape:snap-global="false"
     showguides="false"
     inkscape:window-width="1920"
     inkscape:window-height="1032"
     inkscape:window-x="0"
     inkscape:window-y="0"
     inkscape:window-maximized="1"
     inkscape:pagecheckerboard="0">
    <inkscape:grid
       type="xygrid"
       id="grid833"
       originx="-30.369293"
       originy="-13.852398" />
  </sodipodi:namedview>
  <metadata
     id="metadata5">
    <rdf:RDF>
      <cc:Work
         rdf:about="">
        <dc:format>image/svg+xml</dc:format>
        <dc:type
           rdf:resource="http://purl.org/dc/dcmitype/StillImage" />
      </cc:Work>
    </rdf:RDF>
  </metadata>
  <g
     inkscape:label="Layer 1"
     inkscape:groupmode="layer"
     id="layer1"
     transform="translate(-30.369294,-13.852401)">
    <path
       style="fill:#ff0000;fill-opacity:1;fill-rule:nonzero;stroke:none;stroke-width:1;stroke-linecap:round;stroke-linejoin:round;stroke-miterlimit:4;stroke-dasharray:none"
       id="path1090"
       d="m 31.522347,49.048897 c 0.291564,0.527057 0.841611,0.868596 1.329509,1.224669 0.164931,0.120367 0.333887,0.235727 0.5087,0.341231 0.773171,0.466629 1.630437,0.818237 2.529808,0.951545 0.733639,0.108746 0.886496,0.09267 1.621845,0.02896 0.276342,-0.02394 0.550284,-0.08061 0.817719,-0.154207 0.850012,-0.233918 1.645151,-0.656463 2.357533,-1.169837 0.57728,-0.416015 0.751453,-0.588067 1.248981,-1.086673 0.751973,-0.753603 1.350445,-1.655603 1.764089,-2.639266 0.258412,-0.614511 0.318753,-0.830823 0.464277,-1.470697 0.193607,-0.851296 0.286209,-1.754418 0.16931,-2.627312 -0.0839,-0.62651 -0.116806,-0.707737 -0.351919,-1.286129 -0.08728,-0.214707 -0.21019,-0.414319 -0.338352,-0.607428 -0.343299,-0.517262 -0.820232,-0.973308 -1.374868,-1.258235 -0.521205,-0.267754 -0.644749,-0.285611 -1.22043,-0.341585 -0.238466,-0.02319 -0.48144,0.0093 -0.716682,0.05478 -0.674411,0.130338 -1.25257,0.521284 -1.726305,1.00288 -0.353868,0.359739 -0.477747,0.548482 -0.743541,0.970429 -0.548385,0.870558 -0.85221,1.862923 -1.03352,2.871721 -0.03947,0.219599 -0.07309,0.440351 -0.09999,0.661842 -0.13216,1.088177 -0.154971,2.195394 -0.02896,3.286231 0.02725,0.235855 0.0606,0.471151 0.102215,0.704903 0.216064,1.213727 0.550267,2.409513 1.003765,3.556939 0.09193,0.232595 0.19035,0.462675 0.293232,0.690639 0.40438,0.896016 0.919767,1.740173 1.580167,2.472058 0.408521,0.452742 0.595152,0.615604 1.057325,1.001744 0.684863,0.572194 1.452532,1.049655 2.276074,1.399239 0.560019,0.23772 0.671261,0.265501 1.268549,0.409191 1.297838,0.312221 2.638478,0.228234 3.954049,0.08892 0.822237,-0.08707 1.638128,-0.240922 2.437075,-0.455404 0.577269,-0.154972 0.7371,-0.212516 1.302092,-0.409144 0.842881,-0.293338 1.662831,-0.651144 2.454883,-1.062751 0.523016,-0.271799 0.694397,-0.374772 1.200493,-0.674511 1.155211,-0.684183 2.220761,-1.503885 3.251298,-2.360726 0.837847,-0.696629 1.596077,-1.483361 2.341954,-2.276038 0.623926,-0.663074 1.257601,-1.316317 1.886056,-1.974877 0.66285,-0.694602 1.339621,-1.376975 2.057696,-2.014452 0.549011,-0.487389 1.159618,-0.90027 1.83252,-1.191197 0.173744,-0.07512 0.552791,-0.229545 0.762405,-0.145992 0.334501,0.133333 0.68679,0.216284 1.022985,0.344763 0.481472,0.183998 0.978315,0.315015 1.482643,0.415658 2.12245,0.423553 2.71938,-2.580222 0.596593,-3.002077 v 0 c -0.348983,-0.0669 -0.69066,-0.160427 -1.023731,-0.286609 -0.527353,-0.199785 -1.058921,-0.405301 -1.616784,-0.497491 -0.395442,-0.06535 -0.469582,-0.07613 -0.86714,-0.04915 -0.580417,0.03939 -1.137675,0.21927 -1.665658,0.453998 -0.14743,0.06554 -0.293065,0.135297 -0.436385,0.209394 -0.769966,0.398078 -1.484469,0.899726 -2.133341,1.472147 -0.777009,0.685462 -1.506721,1.422479 -2.221301,2.172872 -0.627268,0.658704 -1.261744,1.310219 -1.88458,1.973339 -0.66262,0.705476 -1.333678,1.408685 -2.076606,2.030466 -0.903192,0.755911 -1.838427,1.478218 -2.851744,2.082649 -0.427373,0.254922 -0.583736,0.348586 -1.023217,0.578699 -0.668149,0.349846 -1.360428,0.653038 -2.071804,0.903171 -0.442975,0.155758 -0.599196,0.212598 -1.049368,0.335415 -0.660676,0.180248 -1.335962,0.308608 -2.016411,0.382741 -0.951452,0.103657 -1.921557,0.181172 -2.86816,-0.0045 -0.128839,-0.02527 -0.25676,-0.0561 -0.382668,-0.09331 -0.70969,-0.209747 -1.354048,-0.603257 -1.927077,-1.061572 -0.302163,-0.241673 -0.460051,-0.381505 -0.723952,-0.661998 -0.47006,-0.499615 -0.825783,-1.08738 -1.110773,-1.708409 -0.08256,-0.179911 -0.161864,-0.361418 -0.23538,-0.545211 -0.38061,-0.951537 -0.659974,-1.944184 -0.848534,-2.950544 -0.03202,-0.170877 -0.05879,-0.342831 -0.07994,-0.515392 -0.10475,-0.854752 -0.09854,-1.724597 0.0075,-2.577449 0.09857,-0.792806 0.254165,-1.588792 0.657822,-2.290644 0.04767,-0.08289 0.09802,-0.164311 0.151433,-0.24362 0.04413,-0.06553 0.09118,-0.12918 0.140947,-0.190532 0.09377,-0.115609 0.183631,-0.136419 0.208416,-0.134 0.09053,0.0088 0.113707,0.02099 0.209192,0.154051 0.103817,0.144675 0.126025,0.237045 0.157525,0.419237 0.09329,0.539584 0.02602,1.100948 -0.08008,1.630511 -0.07488,0.373748 -0.129397,0.577183 -0.269185,0.931688 -0.255259,0.647337 -0.640361,1.239301 -1.119509,1.741347 -0.128113,0.134236 -0.259604,0.265525 -0.397126,0.390107 -0.397693,0.360265 -0.835159,0.664321 -1.315795,0.903441 -0.127213,0.06329 -0.256236,0.124574 -0.390772,0.170275 -0.128841,0.04377 -0.26175,0.07814 -0.396487,0.09715 -0.312776,0.04413 -0.481297,0.06403 -0.794198,0.02975 -0.522276,-0.05722 -1.022904,-0.255131 -1.475394,-0.512625 -0.103436,-0.05886 -0.203392,-0.123904 -0.301127,-0.191809 -0.33859,-0.235247 -0.639721,-0.521338 -0.912296,-0.828233 -1.43723,-1.618194 -3.355265,0.116964 -2.307611,2.010799 z"
       sodipodi:nodetypes="sssssssssssssssssssssssssssssssssssssssssssssssssssssssssssssssssssssssssssssssssssss" />
    <g
       id="g915"
       transform="translate(0.26319437,0.23592301)">
      <path
         style="fill:#ff0000;fill-opacity:1;stroke:none;stroke-width:0.5;stroke-linecap:butt;stroke-linejoin:miter;stroke-miterlimit:4;stroke-dasharray:none;stroke-opacity:1"
         d="M 62.041675,14.500575 46.328871,38.998743 44.754453,53.705366 57.464402,46.140927 73.177206,21.642758"
         id="path835" />
      <path
         style="fill:#7a492c;fill-opacity:1;stroke:none;stroke-width:0.265;stroke-linecap:butt;stroke-linejoin:miter;stroke-miterlimit:4;stroke-dasharray:none;stroke-opacity:1"
         d="m 46.238746,39.741181 -0.711578,6.838289 5.361489,3.505306 5.921975,-3.554883 z"
         id="path867" />
      <circle
         style="fill:#ff0000;fill-opacity:1;fill-rule:evenodd;stroke:#000000;stroke-width:1;stroke-linecap:round;stroke-linejoin:round;stroke-miterlimit:4;stroke-dasharray:none"
         id="path837"
         sodipodi:type="arc"
         sodipodi:cx="66.660484"
         sodipodi:cy="7.7597671"
         sodipodi:rx="6.614583"
         sodipodi:ry="1.3229166"
         sodipodi:start="0.1392423"
         sodipodi:end="3.1000315"
         sodipodi:arc-type="arc"
         sodipodi:open="true"
         d="m 73.211048,7.9433783 a 6.614583,1.3229166 0 0 1 -6.873495,1.1377279 6.614583,1.3229166 0 0 1 -6.28594,-1.266373"
         transform="rotate(32.67558)" />
      <circle
         style="fill:#7a492c;fill-opacity:1;fill-rule:evenodd;stroke:#000000;stroke-width:1;stroke-linecap:round;stroke-linejoin:round;stroke-miterlimit:4;stroke-dasharray:none"
         id="path837-4"
         sodipodi:type="arc"
         sodipodi:cx="66.664062"
         sodipodi:cy="14.335733"
         sodipodi:rx="3.3248177"
         sodipodi:ry="0.66496354"
         sodipodi:start="0.1392423"
         sodipodi:end="3.0178387"
         sodipodi:arc-type="arc"
         sodipodi:open="true"
         d="m 69.956701,14.428026 a 3.3248177,0.66496354 0 0 1 -3.318386,0.572651 3.3248177,0.66496354 0 0 1 -3.273643,-0.582862"
         transform="rotate(32.67558)" />
      <path
         style="fill:none;fill-opacity:1;stroke:#000000;stroke-width:1;stroke-linecap:butt;stroke-linejoin:miter;stroke-miterlimit:4;stroke-dasharray:none;stroke-opacity:1"
         d="M 62.041675,14.500575 46.328871,38.998743 44.754453,53.705366 57.464402,46.140927 73.177206,21.642758"
         id="path865" />
      <path
         style="fill:none;fill-opacity:1;stroke:#000000;stroke-width:1;stroke-linecap:butt;stroke-linejoin:miter;stroke-miterlimit:4;stroke-dasharray:none;stroke-opacity:1"
         d="M 64.874404,17.689201 49.1616,42.187369 m 4.044359,2.573006 15.712804,-24.498169"
         id="path865-7"
         sodipodi:nodetypes="cccc" />
      <ellipse
         style="fill:#ff0000;fill-opacity:1;fill-rule:evenodd;stroke:#000000;stroke-width:1;stroke-linecap:round;stroke-linejoin:round;stroke-miterlimit:4;stroke-dasharray:none"
         id="path837-6"
         transform="rotate(32.67558)"
         cx="66.66568"
         cy="-21.261393"
         rx="6.614583"
         ry="1.3229166" />
    </g>
  </g>
</svg>
