<?xml version="1.0" encoding="UTF-8" standalone="no"?>
<svg
   width="44.737934mm"
   height="44.653866mm"
   viewBox="0 0 44.737934 44.653865"
   version="1.1"
   id="svg8"
   sodipodi:docname="fixed-width-pen-recognize-filled.svg"
   inkscape:version="1.1.2 (0a00cf5339, 2022-02-04)"
   xmlns:inkscape="http://www.inkscape.org/namespaces/inkscape"
   xmlns:sodipodi="http://sodipodi.sourceforge.net/DTD/sodipodi-0.dtd"
   xmlns="http://www.w3.org/2000/svg"
   xmlns:svg="http://www.w3.org/2000/svg"
   xmlns:rdf="http://www.w3.org/1999/02/22-rdf-syntax-ns#"
   xmlns:cc="http://creativecommons.org/ns#"
   xmlns:dc="http://purl.org/dc/elements/1.1/">
  <sodipodi:namedview
     id="namedview19"
     pagecolor="#ffffff"
     bordercolor="#666666"
     borderopacity="1.0"
     inkscape:pageshadow="2"
     inkscape:pageopacity="0.0"
     inkscape:pagecheckerboard="0"
     inkscape:document-units="mm"
     showgrid="false"
     inkscape:zoom="3.2707976"
     inkscape:cx="22.471583"
     inkscape:cy="95.542446"
     inkscape:window-width="1920"
     inkscape:window-height="1032"
     inkscape:window-x="0"
     inkscape:window-y="0"
     inkscape:window-maximized="1"
     inkscape:current-layer="svg8" />
  <defs
     id="defs2" />
  <metadata
     id="metadata5">
    <rdf:RDF>
      <cc:Work
         rdf:about="">
        <dc:format>image/svg+xml</dc:format>
        <dc:type
           rdf:resource="http://purl.org/dc/dcmitype/StillImage" />
      </cc:Work>
    </rdf:RDF>
  </metadata>
  <path
     d="M 7.171132,17.217134 C 6.417544,17.209534 5.664445,17.283344 4.925275,17.443477 4.18913,17.657998 3.89757,17.6997 3.216852,18.074963 2.472022,18.485569 1.841961,19.088609 1.393707,19.810257 1.263626,20.019676 1.174654,20.251926 1.065045,20.472749 0.840818,21.111368 0.753334,21.277584 0.63458,21.95793 c -0.155292,0.889674 -0.164123,1.80831 0.01757,2.695442 0.06057,0.295712 0.165766,0.580478 0.248564,0.870748 0.125354,0.283215 0.23103,0.575704 0.375688,0.849561 0.703975,1.332716 1.870814,2.341819 3.061312,3.225643 0.698177,0.472041 0.907146,0.632617 1.642276,1.048515 -0.125709,0.122589 -0.251372,0.244975 -0.376204,0.368454 -0.52251,0.5261 -1.057593,1.04853 -1.491382,1.653127 -0.08891,0.123915 -0.169405,0.253606 -0.254248,0.380338 -0.402005,0.648277 -0.717152,1.355358 -0.879016,2.103231 -0.03288,0.151916 -0.05269,0.306224 -0.07906,0.459404 -0.09405,0.764106 -0.02739,1.539272 0.171566,2.282032 0.03885,0.145047 0.08827,0.286903 0.132292,0.430463 0.19537,0.556107 0.457023,1.090907 0.808736,1.565797 0.23738,0.320516 0.340246,0.413506 0.609265,0.699182 0.442923,0.436931 0.952317,0.796137 1.507401,1.075905 0.30109,0.151754 0.458561,0.207896 0.767395,0.331761 0.819062,0.31787 1.691293,0.433064 2.560051,0.515731 0.880424,0.06406 1.763688,0.03053 2.6448,0.0031 0.925685,-0.03164 1.851582,-0.0617 2.777091,-0.09819 1.068634,-0.03855 2.135156,-0.120213 3.199288,-0.22376 1.105929,-0.114726 2.206154,-0.27441 3.307808,-0.423231 1.152749,-0.15491 2.309907,-0.277502 3.471623,-0.336412 1.08246,-0.0603 2.163783,0.0141 3.232877,0.182936 0.834335,0.152598 1.647748,0.398885 2.44688,0.679545 0.757097,0.270936 1.477505,0.629274 2.213819,0.949812 0.845042,0.355018 1.721586,0.627044 2.605008,0.867648 0.558824,0.147 1.12431,0.273013 1.69912,0.338479 0.415692,0.04734 0.501335,0.04216 0.915191,0.0553 0.714991,0.0064 1.427477,-0.09511 2.10013,-0.343133 0.137875,-0.05084 0.271494,-0.112625 0.40721,-0.168981 0.903544,-0.432486 1.534027,-1.194427 2.11305,-1.984375 0.494567,-0.67922 0.838292,-1.443152 1.119311,-2.230356 0.227227,-0.693878 0.347634,-1.418034 0.374653,-2.147154 0.006,-0.161158 0.0038,-0.322953 0.0057,-0.484209 -0.0071,-0.65768 -0.09396,-1.311341 -0.270785,-1.9451 -0.108167,-0.387673 -0.173495,-0.537435 -0.315227,-0.916223 -0.356376,-0.860047 -0.799807,-1.682025 -1.257287,-2.491838 -0.430408,-0.755835 -0.946772,-1.45678 -1.481564,-2.140955 -0.53817,-0.698704 -1.221785,-1.248135 -1.940449,-1.748214 -0.753676,-0.503581 -1.596466,-0.846507 -2.449464,-1.140499 -0.744302,-0.225381 -1.501741,-0.405162 -2.258259,-0.58446 -0.627359,-0.140694 -1.254246,-0.284671 -1.888257,-0.392224 -0.706387,-0.108223 -1.420394,-0.127723 -2.133203,-0.102319 -0.700598,0.05706 -1.395698,0.169278 -2.089796,0.278019 -0.214862,0.02837 -0.427754,0.06434 -0.64027,0.104386 -0.440862,-0.951472 -1.89237,-1.346287 -2.685108,-0.111621 -0.316751,0.422992 -0.721211,0.764639 -1.130163,1.09399 -0.81634,0.601713 -1.73752,1.04531 -2.67839,1.415933 -0.262651,0.103463 -0.529904,0.194869 -0.794783,0.292489 -1.349832,0.463267 -2.738127,0.8309 -4.158919,0.991156 -0.258226,0.02913 -0.517757,0.04375 -0.776697,0.06563 -1.081929,0.05876 -2.163841,-0.01061 -3.228743,-0.208256 0.0011,-8.02e-4 0.002,-0.0018 0.0031,-0.0026 0.834415,-0.66548 1.677508,-1.330812 2.381767,-2.138371 0.303617,-0.370634 0.489125,-0.575227 0.748791,-0.984954 0.438227,-0.691473 0.716871,-1.455515 0.842326,-2.263944 0.05581,-0.543405 0.104957,-0.772902 0.05426,-1.328084 -0.06693,-0.73298 -0.293038,-1.441821 -0.679544,-2.070158 -0.140285,-0.22806 -0.314533,-0.433395 -0.471807,-0.65009 C 14.28971,19.676683 14.22997,19.575267 13.638974,19.16997 12.647319,18.489908 11.518133,18.050787 10.370956,17.713212 9.618927,17.525852 9.29845,17.42516 8.525074,17.317887 8.075735,17.255557 7.623304,17.221677 7.171151,17.217118 Z"
     id="path9552"
     style="fill:#ff0000;fill-opacity:0.5;stroke:none;stroke-opacity:1" />
  <path
     id="path9548"
     style="fill:#ff0000;fill-opacity:1;stroke:none;stroke-width:3;stroke-linecap:round;stroke-linejoin:round"
     d="M 7.171132,17.217134 C 6.417544,17.209534 5.664445,17.283344 4.925275,17.443477 4.18913,17.657998 3.89757,17.6997 3.216852,18.074963 2.472022,18.485569 1.841961,19.088609 1.393707,19.810257 1.263626,20.019676 1.174654,20.251926 1.065045,20.472749 0.840818,21.111368 0.753334,21.277584 0.63458,21.95793 c -0.155292,0.889674 -0.164123,1.80831 0.01757,2.695442 0.06057,0.295712 0.165766,0.580478 0.248564,0.870748 0.125354,0.283215 0.23103,0.575704 0.375688,0.849561 0.703975,1.332716 1.870814,2.341819 3.061312,3.225643 0.698177,0.472041 0.907146,0.632617 1.642276,1.048515 -0.125709,0.122589 -0.251372,0.244975 -0.376204,0.368454 -0.52251,0.5261 -1.057593,1.04853 -1.491382,1.653127 -0.08891,0.123915 -0.169405,0.253606 -0.254248,0.380338 -0.402005,0.648277 -0.717152,1.355358 -0.879016,2.103231 -0.03288,0.151916 -0.05269,0.306224 -0.07906,0.459404 -0.09405,0.764106 -0.02739,1.539272 0.171566,2.282032 0.03885,0.145047 0.08827,0.286903 0.132292,0.430463 0.19537,0.556107 0.457023,1.090907 0.808736,1.565797 0.23738,0.320516 0.340246,0.413506 0.609265,0.699182 0.442923,0.436931 0.952317,0.796137 1.507401,1.075905 0.30109,0.151754 0.458561,0.207896 0.767395,0.331761 0.819062,0.31787 1.691293,0.433064 2.560051,0.515731 0.880424,0.06406 1.763688,0.03053 2.6448,0.0031 0.925685,-0.03164 1.851582,-0.0617 2.777091,-0.09819 1.068634,-0.03855 2.135156,-0.120213 3.199288,-0.22376 1.105929,-0.114726 2.206154,-0.27441 3.307808,-0.423231 1.152749,-0.15491 2.309907,-0.277502 3.471623,-0.336412 1.08246,-0.0603 2.163783,0.0141 3.232877,0.182936 0.834335,0.152598 1.647748,0.398885 2.44688,0.679545 0.757097,0.270936 1.477505,0.629274 2.213819,0.949812 0.845042,0.355018 1.721586,0.627044 2.605008,0.867648 0.558824,0.147 1.12431,0.273013 1.69912,0.338479 0.415692,0.04734 0.501335,0.04216 0.915191,0.0553 0.714991,0.0064 1.427477,-0.09511 2.10013,-0.343133 0.137875,-0.05084 0.271494,-0.112625 0.40721,-0.168981 0.903544,-0.432486 1.534027,-1.194427 2.11305,-1.984375 0.494567,-0.67922 0.838292,-1.443152 1.119311,-2.230356 0.227227,-0.693878 0.347634,-1.418034 0.374653,-2.147154 0.006,-0.161158 0.0038,-0.322953 0.0057,-0.484209 -0.0071,-0.65768 -0.09396,-1.311341 -0.270785,-1.9451 -0.108167,-0.387673 -0.173495,-0.537435 -0.315227,-0.916223 -0.356376,-0.860047 -0.799807,-1.682025 -1.257287,-2.491838 -0.430408,-0.755835 -0.946772,-1.45678 -1.481564,-2.140955 -0.53817,-0.698704 -1.221785,-1.248135 -1.940449,-1.748214 -0.753676,-0.503581 -1.596466,-0.846507 -2.449464,-1.140499 -0.744302,-0.225381 -1.501741,-0.405162 -2.258259,-0.58446 -0.627359,-0.140694 -1.254246,-0.284671 -1.888257,-0.392224 -0.706387,-0.108223 -1.420394,-0.127723 -2.133203,-0.102319 -0.700598,0.05706 -1.395698,0.169278 -2.089796,0.278019 -0.214862,0.02837 -0.427754,0.06434 -0.64027,0.104386 -0.440862,-0.951472 -1.89237,-1.346287 -2.685108,-0.111621 -0.316751,0.422992 -0.721211,0.764639 -1.130163,1.09399 -0.81634,0.601713 -1.73752,1.04531 -2.67839,1.415933 -0.262651,0.103463 -0.529904,0.194869 -0.794783,0.292489 -1.349832,0.463267 -2.738127,0.8309 -4.158919,0.991156 -0.258226,0.02913 -0.517757,0.04375 -0.776697,0.06563 -1.081929,0.05876 -2.163841,-0.01061 -3.228743,-0.208256 0.0011,-8.02e-4 0.002,-0.0018 0.0031,-0.0026 0.834415,-0.66548 1.677508,-1.330812 2.381767,-2.138371 0.303617,-0.370634 0.489125,-0.575227 0.748791,-0.984954 0.438227,-0.691473 0.716871,-1.455515 0.842326,-2.263944 0.05581,-0.543405 0.104957,-0.772902 0.05426,-1.328084 -0.06693,-0.73298 -0.293038,-1.441821 -0.679544,-2.070158 -0.140285,-0.22806 -0.314533,-0.433395 -0.471807,-0.65009 C 14.28971,19.676683 14.22997,19.575267 13.638974,19.16997 12.647319,18.489908 11.518133,18.050787 10.370956,17.713212 9.618927,17.525852 9.29845,17.42516 8.525074,17.317887 8.075735,17.255557 7.623304,17.221677 7.171151,17.217118 Z M 6.972695,20.21385 c 0.41829,-0.0047 0.837133,0.02573 1.251603,0.08888 0.56197,0.08563 0.85815,0.177164 1.4118,0.31936 0.976478,0.313887 1.999595,0.667928 2.766239,1.381311 0.08941,0.0832 0.165494,0.179744 0.248047,0.269751 0.145658,0.236878 0.265931,0.493221 0.307475,0.771012 0.04096,0.273882 -0.0074,0.554947 -0.04806,0.824756 -0.06047,0.292267 -0.143339,0.583183 -0.288871,0.845943 -0.169982,0.306907 -0.409209,0.574202 -0.633553,0.840776 -0.58194,0.638804 -1.26793,1.169362 -1.941484,1.706355 -0.556012,0.410178 -1.10557,0.827789 -1.645894,1.257805 C 8.057535,28.362682 7.721862,28.190843 7.393857,28.002518 6.774034,27.646643 6.612373,27.519373 6.023398,27.117301 5.189675,26.475571 4.304963,25.78191 3.836451,24.809431 3.766901,24.665067 3.72237,24.509622 3.665402,24.359846 3.626702,24.198079 3.575002,24.038912 3.54913,23.874605 3.446276,23.221416 3.5281,22.520688 3.729998,21.894364 3.773278,21.760096 3.832384,21.631568 3.883477,21.500073 3.941817,21.396115 3.988886,21.284605 4.05866,21.187947 4.11307,21.112567 4.183378,21.04961 4.252963,20.987959 4.718814,20.575234 5.135637,20.482773 5.724708,20.335286 6.136991,20.258336 6.554404,20.2185 6.972694,20.213846 Z m 23.61923,8.46305 c 0.381698,-0.002 0.76318,0.01871 1.14205,0.07235 0.568709,0.09333 1.128948,0.230519 1.691886,0.352949 0.662604,0.156731 1.32534,0.315992 1.979724,0.504362 0.592978,0.200083 1.182502,0.430324 1.712039,0.76843 0.473347,0.32509 0.932508,0.671493 1.286227,1.130681 0.443923,0.56548 0.874043,1.144381 1.232482,1.768882 0.383495,0.676341 0.754086,1.363186 1.062469,2.077394 0.225287,0.583793 0.395456,1.142119 0.391189,1.776635 -2.65e-4,0.560491 -0.03368,1.122614 -0.210323,1.659329 -0.17549,0.513848 -0.39647,1.012058 -0.713134,1.456243 -0.257918,0.35605 -0.516411,0.730086 -0.872299,0.995804 -0.394809,0.182521 -0.806583,0.281517 -1.244884,0.269235 -0.647483,-0.01175 -1.284689,-0.110881 -1.907894,-0.289904 -0.744067,-0.201025 -1.481841,-0.428482 -2.194698,-0.723471 -0.804129,-0.348554 -1.590476,-0.741471 -2.41949,-1.030428 -0.972066,-0.338764 -1.961319,-0.634868 -2.977081,-0.811837 -0.197824,-0.03027 -0.394838,-0.0648 -0.593243,-0.09095 -1.078077,-0.142105 -2.168993,-0.17103 -3.254583,-0.124024 -1.243979,0.06567 -2.48372,0.191331 -3.71812,0.359151 -1.06506,0.14388 -2.128663,0.299395 -3.197737,0.411345 -1.006416,0.09867 -2.015454,0.174644 -3.026172,0.211357 -0.917161,0.03621 -1.834435,0.06625 -2.75177,0.09767 -0.757128,0.02355 -1.515809,0.05477 -2.272729,0.0083 C 9.150239,39.473153 8.557458,39.41155 8.001572,39.208074 7.562944,39.037701 7.131986,38.84913 6.789243,38.515612 6.680098,38.405027 6.580733,38.310338 6.483836,38.189532 6.300261,37.960662 6.168617,37.696391 6.065257,37.423172 5.922228,36.991623 5.81911,36.544342 5.862168,36.086303 c 0.06614,-0.498874 0.234691,-0.958955 0.501778,-1.386996 0.371043,-0.58153 0.859627,-1.068551 1.349789,-1.550294 0.412349,-0.408064 0.829214,-0.811122 1.260388,-1.198893 0.167425,0.05344 0.33512,0.10524 0.504362,0.153479 0.806182,0.216683 1.082267,0.307822 1.909961,0.45992 1.324174,0.243335 2.670159,0.324287 4.014225,0.243914 0.313107,-0.0281 0.627248,-0.04765 0.939478,-0.08423 1.631968,-0.191225 3.227835,-0.61159 4.778002,-1.148252 0.308058,-0.114779 0.619038,-0.223142 0.924492,-0.344681 1.202799,-0.478597 2.37001,-1.065853 3.402376,-1.852599 0.138606,-0.114126 0.279681,-0.22588 0.416512,-0.342099 0.324423,0.203745 0.751693,0.286822 1.260905,0.159163 0.444248,-0.11199 0.891209,-0.206338 1.346171,-0.264583 0.578344,-0.09074 1.157766,-0.181486 1.739945,-0.243912 0.127233,-0.0053 0.25414,-0.0086 0.381373,-0.0093 z" />
  <circle
     style="fill:#ff0000;fill-opacity:1;fill-rule:evenodd;stroke:#000000;stroke-width:1;stroke-linecap:round;stroke-linejoin:round;stroke-miterlimit:4;stroke-dasharray:none"
     id="path837"
     transform="rotate(32.67558)"
     cx="-33.041737"
     cy="4.7356901"
     r="0" />
  <circle
     style="fill:#7a492c;fill-opacity:1;fill-rule:evenodd;stroke:#000000;stroke-width:1;stroke-linecap:round;stroke-linejoin:round;stroke-miterlimit:4;stroke-dasharray:none"
     id="path837-4"
     transform="rotate(32.67558)"
     cx="-33.041737"
     cy="4.7356901"
     r="0" />
  <g
     aria-label="*"
     transform="rotate(11.403605)"
     id="text10607"
     style="font-size:10.0261px;line-height:1.25;letter-spacing:0px;fill:#ff0000;stroke-width:0.264583">
    <path
       d="m 11.294971,6.3401368 c 0.04011,-0.802084 0.320834,-1.6442721 0.601563,-2.5666687 0.360938,-1.1229175 0.721876,-2.3260435 0.721876,-3.48906525 0,-1.48385535 -0.882292,-2.16562675 -2.00521,-2.16562675 -1.1229174,0 -2.045314,0.5614588 -2.045314,2.12552255 0,2.00520995 1.3234385,3.64948205 1.564064,6.13594235 C 8.4876776,5.7385738 6.7230929,3.9338849 4.7178829,3.3323219 3.314236,2.9312799 2.3918394,3.5729471 2.0710058,4.6156563 1.7501723,5.6984696 2.0309016,6.7411788 3.514757,7.182325 4.517362,7.5031586 5.5199669,7.4229502 6.6027803,7.382846 7.6053852,7.3026376 8.6881986,7.2224292 9.8512203,7.4630544 8.768407,8.8667013 6.5225719,10.029723 5.3996543,11.754204 c -0.8421882,1.24323 -0.4812504,2.285939 0.4411462,2.927606 0.9223966,0.641667 2.0052099,0.641667 2.8875023,-0.641667 1.1229175,-1.684376 0.9223966,-3.769795 2.1255222,-5.9755257 1.002605,1.4838554 1.443751,3.9302117 2.76719,5.5343797 0.962501,1.163021 2.085418,1.163021 2.927606,0.441146 0.882293,-0.721876 1.243231,-1.764585 0.240626,-2.967711 C 15.546017,9.5083685 13.500702,9.1875349 11.776222,7.382846 13.460598,6.8614914 15.947059,7.1422208 17.87206,6.3401368 19.235603,5.778678 19.556436,4.6958647 19.155394,3.6531555 18.714248,2.6104464 17.831956,2.0088834 16.388205,2.5703422 14.503307,3.3323219 13.500702,5.1771151 11.294971,6.3401368 Z"
       style="font-size:40.1042px;font-family:'Libertinus Mono';-inkscape-font-specification:'Libertinus Mono, Normal'"
       id="path1273" />
  </g>
  <g
     id="g1495"
     transform="translate(0.82989899,-0.78645823)">
    <path
       style="fill:#ff0000;fill-opacity:1;stroke:none;stroke-width:0.5;stroke-linecap:butt;stroke-linejoin:miter;stroke-miterlimit:4;stroke-dasharray:none;stroke-opacity:1"
       d="M 31.978845,1.654789 16.266041,26.152957 14.691623,40.85958 27.401572,33.295141 43.114376,8.796972"
       id="path835" />
    <path
       style="fill:#7a492c;fill-opacity:1;stroke:none;stroke-width:0.265;stroke-linecap:butt;stroke-linejoin:miter;stroke-miterlimit:4;stroke-dasharray:none;stroke-opacity:1"
       d="m 16.175916,26.895395 -0.711578,6.838289 5.361489,3.505306 5.921975,-3.554883 z"
       id="path867" />
    <circle
       style="fill:#7a492c;fill-opacity:1;fill-rule:evenodd;stroke:#000000;stroke-width:1;stroke-linecap:round;stroke-linejoin:round;stroke-miterlimit:4;stroke-dasharray:none"
       id="path837-4-3"
       sodipodi:type="arc"
       sodipodi:cx="34.423744"
       sodipodi:cy="19.753279"
       sodipodi:rx="3.3248177"
       sodipodi:ry="0.66496354"
       sodipodi:start="0.1392423"
       sodipodi:end="3.0178387"
       sodipodi:arc-type="arc"
       sodipodi:open="true"
       transform="rotate(32.67558)"
       d="m 37.716382,19.845571 a 3.3248177,0.66496354 0 0 1 -3.318386,0.572651 3.3248177,0.66496354 0 0 1 -3.273642,-0.582861" />
    <path
       style="fill:none;fill-opacity:1;stroke:#000000;stroke-width:1;stroke-linecap:butt;stroke-linejoin:miter;stroke-miterlimit:4;stroke-dasharray:none;stroke-opacity:1"
       d="M 31.978845,1.654789 16.266041,26.152957 14.691623,40.85958 27.401572,33.295141 43.114376,8.796972"
       id="path865" />
    <ellipse
       style="fill:#ff0000;fill-opacity:1;fill-rule:evenodd;stroke:#000000;stroke-width:1;stroke-linecap:round;stroke-linejoin:round;stroke-miterlimit:4;stroke-dasharray:none"
       id="path837-6"
       transform="rotate(32.67558)"
       cx="34.425362"
       cy="-15.843848"
       rx="6.614583"
       ry="1.3229166" />
    <circle
       style="fill:#ff0000;fill-opacity:1;fill-rule:evenodd;stroke:#000000;stroke-width:1;stroke-linecap:round;stroke-linejoin:round;stroke-miterlimit:4;stroke-dasharray:none"
       id="path837-7"
       sodipodi:type="arc"
       sodipodi:cx="34.420166"
       sodipodi:cy="13.177312"
       sodipodi:rx="6.614583"
       sodipodi:ry="1.3229166"
       sodipodi:start="0.1392423"
       sodipodi:end="3.1000315"
       sodipodi:arc-type="arc"
       sodipodi:open="true"
       transform="rotate(32.67558)"
       d="m 40.970729,13.360923 a 6.614583,1.3229166 0 0 1 -6.873495,1.137728 6.614583,1.3229166 0 0 1 -6.285939,-1.266373" />
    <path
       style="fill:none;fill-opacity:1;stroke:#000000;stroke-width:1;stroke-linecap:butt;stroke-linejoin:miter;stroke-miterlimit:4;stroke-dasharray:none;stroke-opacity:1"
       d="M 34.811574,4.843415 19.09877,29.341583 M 23.143129,31.914589 38.855933,7.41642"
       id="path865-7"
       sodipodi:nodetypes="cccc" />
  </g>
</svg>
