<?xml version="1.0" encoding="UTF-8" standalone="no"?>
<svg
   width="44.737934mm"
   height="44.653866mm"
   viewBox="0 0 44.737934 44.653865"
   version="1.1"
   id="svg8"
   xmlns="http://www.w3.org/2000/svg"
   xmlns:svg="http://www.w3.org/2000/svg"
   xmlns:rdf="http://www.w3.org/1999/02/22-rdf-syntax-ns#"
   xmlns:cc="http://creativecommons.org/ns#"
   xmlns:dc="http://purl.org/dc/elements/1.1/">
  <defs
     id="defs2" />
  <metadata
     id="metadata5">
    <rdf:RDF>
      <cc:Work
         rdf:about="">
        <dc:format>image/svg+xml</dc:format>
        <dc:type
           rdf:resource="http://purl.org/dc/dcmitype/StillImage" />
      </cc:Work>
    </rdf:RDF>
  </metadata>
  <path
     style="fill:#000000;fill-opacity:1;stroke:none;stroke-width:0.564444;stroke-linecap:round;stroke-linejoin:round;stroke-miterlimit:10"
     id="path1350"
     d="m 0.78807,20.999746 c 0.448181,0.442288 0.27837,0.316926 0.813038,0.751836 0.415096,0.337648 0.818812,0.649108 1.268949,0.941955 1.201648,0.781761 2.496351,1.41897 3.841564,1.925592 0.999722,0.376508 1.436462,0.519045 2.499528,0.788967 2.68619,0.682046 5.472023,0.851836 8.238552,0.869747 0.557605,0.0036 1.115493,0.0022 1.672758,-0.01767 1.643911,-0.05851 3.299372,-0.138744 4.921277,-0.436421 0.580792,-0.106595 1.154422,-0.250055 1.725298,-0.40009 1.516317,-0.39851 1.883174,-0.503638 3.349623,-1.105994 1.988594,-0.816832 3.867441,-1.956539 5.383484,-3.493504 0.983557,-0.997128 1.143571,-1.26901 1.884156,-2.420872 0.25482,-0.396332 0.472314,-0.8177 0.665018,-1.247338 0.766098,-1.70802 1.124604,-3.630435 0.995658,-5.496737 -0.03008,-0.435328 -0.08585,-0.870365 -0.175541,-1.297485 C 37.505733,8.620225 36.81098,7.081708 35.701682,5.670478 34.963417,4.731272 34.729109,4.538224 33.806453,3.791768 33.458572,3.510322 33.074173,3.274707 32.682017,3.058451 31.452957,2.380677 30.191861,2.056307 28.793225,1.958914 c -1.133874,-0.07896 -1.603627,-0.04364 -2.721791,0.10873 -2.001048,0.272677 -3.86191,1.094734 -5.557095,2.170841 -1.02023,0.647646 -1.37409,0.933027 -2.283035,1.716008 -1.266907,1.091335 -2.323495,2.38713 -3.321556,3.719885 -0.767685,1.025127 -1.410409,1.959454 -2.064385,3.059133 -0.308601,0.518923 -0.597474,1.04915 -0.878612,1.583238 -1.101799,2.093127 -1.865069,4.333971 -2.451796,6.616469 -0.15421,0.599911 -0.308584,1.200505 -0.427191,1.808267 -0.128123,0.656527 -0.226955,1.318633 -0.312482,1.981955 -0.08368,0.649023 -0.150934,1.300613 -0.194961,1.953486 -0.151143,2.241288 -0.06116,4.693964 0.533907,6.873699 0.14374,0.526525 0.3228,1.044114 0.519862,1.55331 0.186526,0.481972 0.393515,0.956793 0.629597,1.416831 0.697227,1.358635 1.6877,2.572896 2.989054,3.438844 1.030641,0.68581 1.446343,0.823459 2.824554,0.953033 0.544287,0.05117 1.393204,-0.02009 1.935742,-0.08663 0.526474,-0.06457 1.046094,-0.181783 1.559628,-0.313343 1.679143,-0.43017 3.276456,-1.125673 4.829237,-1.877345 0.560023,-0.271097 1.112958,-0.556221 1.665682,-0.841681 1.956728,-1.010571 3.853409,-2.137056 5.863473,-3.045275 0.395048,-0.178498 0.791941,-0.354095 1.197194,-0.508662 0.386112,-0.147269 0.778417,-0.280003 1.175125,-0.396171 0.363813,-0.106535 0.730998,-0.205349 1.104422,-0.271352 0.794791,-0.140479 1.638215,-0.151978 2.402459,0.137055 0.45004,0.170206 0.54041,0.245949 0.868597,0.569415 0.603196,0.594519 0.972636,1.367084 1.386082,2.095544 0.20724,0.365141 0.375811,0.754238 0.619879,1.096444 0.307434,0.431052 0.661891,0.829605 1.027471,1.213295 1.356302,1.42349 3.156546,0.422055 2.460143,-1.421878 -0.161758,-0.428301 -0.305265,-0.915208 -0.457823,-1.295206 -0.198697,-0.494921 -0.905538,-1.961888 -1.158338,-2.418934 -0.221972,-0.40131 -0.443769,-0.805462 -0.714383,-1.176489 -0.2522,-0.345783 -0.522326,-0.687534 -0.848109,-0.965792 -0.892901,-0.762644 -1.118255,-0.977684 -2.254647,-1.369646 -1.377015,-0.474957 -2.867576,-0.461995 -4.286008,-0.206187 -0.480608,0.08668 -0.952294,0.218446 -1.420317,0.357327 -0.490767,0.14563 -0.975486,0.313031 -1.45363,0.495491 -0.458929,0.175126 -0.908341,0.374174 -1.355646,0.576531 -2.036911,0.921487 -3.967419,2.049424 -5.947732,3.079488 -0.508533,0.264514 -1.017613,0.52807 -1.533638,0.777887 -0.916822,0.443853 -1.798836,0.832413 -2.756107,1.181638 -0.753017,0.274708 -1.47967,0.505251 -2.266867,0.651652 -0.275566,0.05125 -0.554311,0.09777 -0.834592,0.104103 -0.524332,0.01185 -0.806061,0.02851 -1.293958,-0.19633 -1.200945,-0.553443 -1.805925,-1.808088 -2.27437,-2.946399 -0.152943,-0.371649 -0.272327,-0.757421 -0.375775,-1.145616 -0.486317,-1.824944 -0.556443,-3.806971 -0.412872,-5.679715 0.04355,-0.567993 0.107209,-1.134962 0.1926,-1.698232 0.0864,-0.569928 0.197547,-1.136161 0.322415,-1.698999 0.236346,-1.065305 0.552086,-2.145762 0.903652,-3.179353 0.286657,-0.842761 0.718739,-1.948337 1.093542,-2.757396 0.21025,-0.453853 0.43369,-0.902334 0.674101,-1.341127 0.249247,-0.454919 0.515935,-0.900277 0.793986,-1.338384 1.297375,-2.04419 2.843867,-3.938222 4.71858,-5.492544 0.276927,-0.2296 0.554034,-0.459244 0.84243,-0.6745 1.058518,-0.790066 2.269996,-1.508853 3.550694,-1.881428 0.588396,-0.171173 1.181538,-0.246592 1.749523,-0.267986 0.677461,-0.02552 1.40754,-0.0077 2.051555,0.223984 0.70536,0.253717 1.117207,0.547259 1.618984,1.026345 0.301239,0.287617 0.762527,0.811812 0.996761,1.16232 0.14712,0.22015 0.270328,0.45524 0.394537,0.688766 0.351731,0.661286 0.3516,0.607234 0.550214,1.28823 0.177841,0.609773 0.199823,0.762378 0.207465,1.417871 0.0068,0.585122 -0.06317,1.126016 -0.18602,1.698086 -0.0609,0.283605 -0.126823,0.567444 -0.222534,0.841507 -0.102144,0.292482 -0.227455,0.577874 -0.369417,0.853446 -0.305746,0.593504 -0.601804,1.145435 -1.027168,1.667932 -0.213388,0.262116 -0.454361,0.502305 -0.703094,0.732004 -0.951823,0.878989 -2.059651,1.564299 -3.208978,2.158791 -0.440828,0.228019 -0.877712,0.465144 -1.332917,0.6635 -0.855077,0.372601 -1.947936,0.712237 -2.840683,0.972807 -0.479513,0.139959 -0.95834,0.284681 -1.445589,0.395534 -0.959772,0.218358 -1.941497,0.335833 -2.916612,0.456415 -0.515628,0.06376 -1.032449,0.118544 -1.550139,0.162791 -1.17823,0.100703 -2.045382,0.139233 -3.229333,0.137284 -0.523262,-8.61e-4 -1.047169,-0.003 -1.569377,-0.03578 C 11.611033,23.206436 10.774038,23.059301 9.812449,22.904154 9.391248,22.836194 8.96988,22.767848 8.551478,22.684609 7.974857,22.569894 6.992469,22.324163 6.419891,22.169493 5.888933,22.026065 5.016083,21.782029 4.491517,21.596963 3.941865,21.403047 3.403009,21.232675 2.903742,21.022683 2.555915,20.876387 2.149689,20.631338 1.811355,20.459977 1.488135,20.296271 1.156386,20.096365 0.889717,19.953366 -0.274325,19.329157 0.10652,20.327157 0.78807,20.999746 Z" />
</svg>
