<?xml version="1.0" encoding="UTF-8" standalone="no"?>
<svg
   width="44.737934mm"
   height="44.653866mm"
   viewBox="0 0 44.737934 44.653865"
   version="1.1"
   id="svg8"
   sodipodi:docname="freehand.svg"
   inkscape:version="1.1.2 (0a00cf5339, 2022-02-04)"
   xmlns:inkscape="http://www.inkscape.org/namespaces/inkscape"
   xmlns:sodipodi="http://sodipodi.sourceforge.net/DTD/sodipodi-0.dtd"
   xmlns="http://www.w3.org/2000/svg"
   xmlns:svg="http://www.w3.org/2000/svg"
   xmlns:rdf="http://www.w3.org/1999/02/22-rdf-syntax-ns#"
   xmlns:cc="http://creativecommons.org/ns#"
   xmlns:dc="http://purl.org/dc/elements/1.1/">
  <sodipodi:namedview
     id="namedview1772"
     pagecolor="#ffffff"
     bordercolor="#666666"
     borderopacity="1.0"
     inkscape:pageshadow="2"
     inkscape:pageopacity="0.0"
     inkscape:pagecheckerboard="0"
     inkscape:document-units="mm"
     showgrid="false"
     inkscape:zoom="4.28955"
     inkscape:cx="69.587719"
     inkscape:cy="88.00457"
     inkscape:window-width="1920"
     inkscape:window-height="1032"
     inkscape:window-x="0"
     inkscape:window-y="0"
     inkscape:window-maximized="1"
     inkscape:current-layer="svg8" />
  <defs
     id="defs2" />
  <metadata
     id="metadata5">
    <rdf:RDF>
      <cc:Work
         rdf:about="">
        <dc:format>image/svg+xml</dc:format>
        <dc:type
           rdf:resource="http://purl.org/dc/dcmitype/StillImage" />
      </cc:Work>
    </rdf:RDF>
  </metadata>
  <g
     id="layer1"
     transform="translate(-30.369294,-13.852401)"
     style="fill:#000000;fill-opacity:1">
    <path
       style="fill:#000000;fill-opacity:1;stroke:none;stroke-width:0.564444;stroke-linecap:round;stroke-linejoin:round;stroke-miterlimit:10"
       id="path1350"
       d="m 30.694681,34.405236 c 0.441977,0.460552 -0.0899,-0.08466 0.462683,0.446911 0.453785,0.436537 0.27837,0.316926 0.813038,0.751836 0.415096,0.337648 0.833338,0.627907 1.268949,0.941955 1.215466,0.760099 2.496351,1.41897 3.841564,1.925592 0.999722,0.376508 1.446371,0.482653 2.499528,0.788967 2.695222,0.645431 5.472023,0.851826 8.238552,0.869747 0.557605,0.0036 1.115171,-0.01178 1.672758,-0.01767 1.643356,-0.07245 3.299372,-0.138744 4.921277,-0.436421 0.580792,-0.106595 1.154422,-0.250055 1.725298,-0.40009 1.516317,-0.39851 1.859966,-0.563567 3.349623,-1.105994 1.963292,-0.875901 3.867441,-1.956539 5.383484,-3.493504 0.983557,-0.997128 1.111565,-1.290228 1.884156,-2.420872 0.221675,-0.415779 0.472314,-0.8177 0.665018,-1.247338 0.766098,-1.70802 1.124604,-3.630435 0.995658,-5.496737 -0.03008,-0.435328 -0.117027,-0.86499 -0.175541,-1.297485 -0.396583,-1.734735 -1.060452,-3.280024 -2.16975,-4.691254 -0.738265,-0.939206 -1.002006,-1.097274 -1.895229,-1.87871 -0.37481,-0.24444 -0.73228,-0.517061 -1.124436,-0.733317 -1.22906,-0.677774 -2.490156,-1.002144 -3.888792,-1.099537 -1.133874,-0.07896 -1.597834,0.0076 -2.721791,0.10873 -1.993435,0.323668 -3.86191,1.094734 -5.557095,2.170841 -1.02023,0.647646 -1.351213,0.960397 -2.283035,1.716008 -1.24334,1.11811 -2.323495,2.38713 -3.321556,3.719885 -0.767685,1.025127 -1.410409,1.959454 -2.064385,3.059133 -0.308601,0.518923 -0.585741,1.055493 -0.878612,1.583238 -1.08998,2.099306 -1.865069,4.333971 -2.451796,6.616469 -0.15421,0.599911 -0.308584,1.200505 -0.427191,1.808267 -0.128123,0.656527 -0.208321,1.321303 -0.312482,1.981955 -0.06498,0.651161 -0.150934,1.300613 -0.194961,1.953486 -0.151143,2.241288 -0.06116,4.693964 0.533907,6.873699 0.14374,0.526525 0.346574,1.03554 0.519862,1.55331 0.209866,0.472277 0.393515,0.956793 0.629597,1.416831 0.697227,1.358635 1.650295,2.631929 2.989054,3.438844 1.287655,0.776115 1.662647,0.69819 3.122134,0.945284 0.546054,-0.02629 1.095624,-0.01234 1.638162,-0.07888 0.526474,-0.06457 1.046094,-0.181783 1.559628,-0.313343 1.679143,-0.43017 3.276456,-1.125673 4.829237,-1.877345 0.560023,-0.271097 1.110454,-0.561122 1.665682,-0.841681 1.954197,-1.015458 3.853409,-2.137056 5.863473,-3.045275 0.395048,-0.178498 0.791941,-0.354095 1.197194,-0.508662 0.386112,-0.147269 0.783419,-0.264115 1.175125,-0.396171 0.368142,-0.09045 0.730998,-0.205349 1.104422,-0.271352 0.794791,-0.140479 1.638215,-0.151978 2.402459,0.137055 0.45004,0.170206 0.515355,0.273514 0.868597,0.569415 0.576486,0.620453 0.972636,1.367084 1.386082,2.095544 0.20724,0.365141 0.375811,0.754238 0.619879,1.096444 0.307434,0.431052 0.68498,0.808862 1.027471,1.213295 1.017641,1.718689 3.477784,0.296812 2.460143,-1.421878 v 0 c -0.152607,-0.431733 -0.286578,-0.870345 -0.457823,-1.295206 -0.199372,-0.49465 -0.905538,-1.961888 -1.158338,-2.418934 -0.221972,-0.40131 -0.443769,-0.805462 -0.714383,-1.176489 -0.2522,-0.345783 -0.565405,-0.64386 -0.848109,-0.965792 -0.931427,-0.715081 -1.118255,-0.977684 -2.254647,-1.369646 -1.377015,-0.474957 -2.867576,-0.461995 -4.286008,-0.206187 -0.480608,0.08668 -0.946876,0.238219 -1.420317,0.357327 -0.484542,0.165164 -0.975486,0.313031 -1.45363,0.495491 -0.458929,0.175126 -0.908341,0.374174 -1.355646,0.576531 -2.036911,0.921487 -3.970132,2.044224 -5.947732,3.079488 -0.511213,0.259297 -1.017613,0.52807 -1.533638,0.777887 -0.916822,0.443853 -1.798836,0.832413 -2.756107,1.181638 -0.753017,0.274708 -1.47967,0.505251 -2.266867,0.651652 -0.275566,0.05125 -0.556394,0.06941 -0.834592,0.104103 -0.524204,-0.01656 -0.806061,0.02851 -1.293958,-0.19633 -1.200945,-0.553443 -1.778788,-1.819638 -2.27437,-2.946399 -0.125259,-0.38187 -0.272327,-0.757421 -0.375775,-1.145616 -0.486317,-1.824944 -0.556443,-3.806971 -0.412872,-5.679715 0.04355,-0.567993 0.128401,-1.132155 0.1926,-1.698232 0.107472,-0.566333 0.197547,-1.136161 0.322415,-1.698999 0.236346,-1.065305 0.552086,-2.145762 0.903652,-3.179353 0.286657,-0.842761 0.718739,-1.948337 1.093542,-2.757396 0.21025,-0.453853 0.449402,-0.894084 0.674101,-1.341127 0.264662,-0.446127 0.515936,-0.900276 0.793986,-1.338384 1.297376,-2.044189 2.847796,-3.933495 4.71858,-5.492544 0.28081,-0.224834 0.554034,-0.459244 0.84243,-0.6745 1.058518,-0.790066 2.269516,-1.510509 3.550694,-1.881428 0.288673,-0.08358 0.58716,-0.129558 0.880741,-0.194336 0.289594,-0.02456 0.578328,-0.06286 0.868782,-0.07365 0.677474,-0.02517 1.403428,0.0041 2.051555,0.223984 0.494765,0.167851 0.619246,0.28166 1.066441,0.558613 0.184182,0.15591 0.37823,0.301112 0.552543,0.467732 0.301073,0.28779 0.762527,0.811812 0.996761,1.16232 0.14712,0.22015 0.270328,0.45524 0.394537,0.688766 0.351731,0.661286 0.311247,0.620325 0.550214,1.28823 0.136736,0.620285 0.199801,0.762378 0.207465,1.417871 0.0068,0.585122 -0.06317,1.126016 -0.18602,1.698086 -0.0609,0.283605 -0.126819,0.567445 -0.222534,0.841507 -0.10214,0.292483 -0.246277,0.568964 -0.369417,0.853446 -0.324099,0.583684 -0.601804,1.145435 -1.027168,1.667932 -0.213388,0.262116 -0.454361,0.502305 -0.703094,0.732004 -0.951823,0.878989 -2.063202,1.557484 -3.208978,2.158791 -0.444306,0.221166 -0.877712,0.465144 -1.332917,0.6635 -0.855077,0.372601 -1.947936,0.712237 -2.840683,0.972807 -0.479513,0.139959 -0.95834,0.284681 -1.445589,0.395534 -0.959772,0.218358 -1.942717,0.326348 -2.916612,0.456415 -0.516714,0.05426 -1.032449,0.118544 -1.550139,0.162791 -1.17823,0.100703 -2.045382,0.139228 -3.229333,0.137284 -0.523262,-8.66e-4 -1.047167,-0.003 -1.569377,-0.03578 -0.97576,-0.06134 -1.811926,-0.213684 -2.774346,-0.363592 -0.420324,-0.07319 -0.842569,-0.136306 -1.260971,-0.219545 -0.576621,-0.114715 -1.559009,-0.360446 -2.131587,-0.515116 -0.530958,-0.143428 -1.400404,-0.397411 -1.928374,-0.57253 -0.284329,-0.09431 -0.564399,-0.20071 -0.846598,-0.301065 -0.24706,-0.09108 -0.498749,-0.170713 -0.741177,-0.273215 -0.347552,-0.146949 -0.757344,-0.384997 -1.092387,-0.562706 -0.144894,-0.07686 -0.29321,-0.147396 -0.437008,-0.226238 -0.163685,-0.08975 -0.316992,-0.19732 -0.48463,-0.280373 -0.429047,-0.394248 -0.993377,0.205227 -0.56433,0.599476 z" />
  </g>
</svg>
