<?xml version="1.0" encoding="UTF-8" standalone="no"?>
<svg
   width="39.906151mm"
   height="39.906151mm"
   viewBox="0 0 39.906151 39.906151"
   version="1.1"
   id="svg8"
   xmlns="http://www.w3.org/2000/svg"
   xmlns:svg="http://www.w3.org/2000/svg"
   xmlns:rdf="http://www.w3.org/1999/02/22-rdf-syntax-ns#"
   xmlns:cc="http://creativecommons.org/ns#"
   xmlns:dc="http://purl.org/dc/elements/1.1/">
  <defs
     id="defs2" />
  <metadata
     id="metadata5">
    <rdf:RDF>
      <cc:Work
         rdf:about="">
        <dc:format>image/svg+xml</dc:format>
        <dc:type
           rdf:resource="http://purl.org/dc/dcmitype/StillImage" />
      </cc:Work>
    </rdf:RDF>
  </metadata>
  <path
     style="fill:#ff0100;fill-opacity:0.98;stroke:#ff0000;stroke-width:4;stroke-linecap:butt;stroke-linejoin:miter;stroke-miterlimit:4;stroke-dasharray:none;stroke-opacity:0.99"
     d="M 25.825967,11.054448 C 19.987815,7.703217 14.349041,3.709889 6.411219,5.495628 2.385236,6.834738 1.509238,11.185207 3.0772,14.296446 c 1.191581,2.508395 3.545022,4.765184 2.929032,7.678679 -0.217332,3.576519 -3.430411,5.797633 -3.045964,8.868127 0.384447,3.070495 3.319461,5.892449 6.383,6.285985 7.988965,1.22062 21.783092,1.550666 25.944521,-4.820395 C 38.105581,28.596721 34.785207,21.75995 32.334432,17.281934 30.892895,14.64798 28.430059,12.549256 25.825967,11.054448 Z"
     id="path14606" />
  <g
     id="g877"
     transform="matrix(0.84923208,0.36846248,-0.36824825,0.84972612,-6.151189,-38.59311)"
     style="stroke-width:1.08003">
    <path
       style="fill:#ff0000;fill-opacity:1;stroke:none;stroke-width:0.285756px;stroke-linecap:butt;stroke-linejoin:miter;stroke-opacity:1"
       d="m 53.452256,59.759961 v 6.085417 l 6.085416,-2.645833 v -3.439583 z"
       id="path839" />
    <path
       style="fill:#ff0000;fill-opacity:1;stroke:#000000;stroke-width:1.08003;stroke-linecap:round;stroke-linejoin:round;stroke-miterlimit:4;stroke-dasharray:none;stroke-opacity:1"
       d="m 50.806423,24.041212 -5.291667,26.458333 h 23.8125 L 64.035589,24.041212 Z"
       id="path835" />
    <path
       style="fill:#000000;fill-opacity:1;stroke:#000000;stroke-width:1.08003;stroke-linecap:round;stroke-linejoin:round;stroke-miterlimit:4;stroke-dasharray:none;stroke-opacity:1"
       d="m 45.514756,50.499545 c 7.937501,5.291667 7.937501,9.260417 7.937501,9.260417 h 6.085415 c 0,0 0,-3.96875 9.789584,-9.260417 z"
       id="path837" />
  </g>
</svg>
