<?xml version="1.0" encoding="UTF-8" standalone="no"?>
<svg
   width="39.906151mm"
   height="39.906151mm"
   viewBox="0 0 39.906151 39.906151"
   version="1.1"
   id="svg8"
   xmlns="http://www.w3.org/2000/svg"
   xmlns:svg="http://www.w3.org/2000/svg"
   xmlns:rdf="http://www.w3.org/1999/02/22-rdf-syntax-ns#"
   xmlns:cc="http://creativecommons.org/ns#"
   xmlns:dc="http://purl.org/dc/elements/1.1/">
  <defs
     id="defs2" />
  <metadata
     id="metadata5">
    <rdf:RDF>
      <cc:Work
         rdf:about="">
        <dc:format>image/svg+xml</dc:format>
        <dc:type
           rdf:resource="http://purl.org/dc/dcmitype/StillImage" />
      </cc:Work>
    </rdf:RDF>
  </metadata>
  <g
     id="g877"
     transform="rotate(23.44276,95.475155,-45.86914)">
    <path
       style="fill:#ff0000;fill-opacity:0.99;stroke:none;stroke-width:0.264583px;stroke-linecap:butt;stroke-linejoin:miter;stroke-opacity:1"
       d="m 53.452256,59.759961 v 6.085417 l 6.085416,-2.645833 v -3.439583 z"
       id="path839" />
    <path
       style="fill:#ff0000;fill-opacity:1;stroke:#000000;stroke-width:1;stroke-linecap:round;stroke-linejoin:round;stroke-miterlimit:4;stroke-dasharray:none;stroke-opacity:1"
       d="m 50.806423,24.041212 -5.291667,26.458333 h 23.8125 L 64.035589,24.041212 Z"
       id="path835" />
    <path
       style="fill:#000000;fill-opacity:1;stroke:#000000;stroke-width:1;stroke-linecap:round;stroke-linejoin:round;stroke-miterlimit:4;stroke-dasharray:none;stroke-opacity:1"
       d="m 45.514756,50.499545 c 7.937501,5.291667 7.937501,9.260417 7.937501,9.260417 h 6.085415 c 0,0 0,-3.96875 9.789584,-9.260417 z"
       id="path837" />
  </g>
  <path
     d="M 9.8187943,8.4481354 C 10.0167,7.6698161 10.458398,6.8997583 10.915961,6.0510764 11.491796,5.021691 12.083489,3.9136806 12.313441,2.7736183 12.606827,1.3190562 11.876752,0.47629786 10.776002,0.25427566 9.6752523,0.03225346 8.6600543,0.40025306 8.3508083,1.9334402 7.9543403,3.8990648 8.9265493,5.7725459 8.6708033,8.2574965 7.1858613,7.3033927 5.8129333,5.1854387 3.9662483,4.1992832 2.6696053,3.5286306 1.6385482,3.9752551 1.1178842,4.933945 0.58929193,5.9319473 0.65831583,7.0095776 2.0256553,7.7354015 c 0.919377,0.512734 1.918048,0.6323431 2.987415,0.8071234 0.998671,0.119609 2.075967,0.2550769 3.168453,0.7209029 -1.338965,1.1618452 -3.770416,1.8578632 -5.212129,3.3262782 -1.071372,1.05217 -0.923723,2.145659 -0.146406,2.957034 0.777318,0.811375 1.838755,1.025468 2.95737,-0.05808 1.433782,-1.429102 1.649547,-3.512999 3.265036,-5.437305 0.689426,1.652796 0.638172,4.138081 1.6183097,5.97225 0.713549,1.330366 1.814298,1.552388 2.782589,1.01128 1.007604,-0.533179 1.56758,-1.483939 0.822649,-2.861548 -0.909442,-1.779002 -2.850945,-2.4979 -4.184561,-4.6079242 1.754206,-0.178029 4.136076,0.5887792 6.181662,0.183138 C 17.713679,9.4677748 18.242271,8.4697721 18.05531,7.3683536 17.829036,6.259006 17.083102,5.4948727 15.556842,5.7597905 13.558496,6.1340476 12.210933,7.7441882 9.8187943,8.4481354 Z"
     style="font-size:40.1042px;line-height:1.25;font-family:'Libertinus Mono';-inkscape-font-specification:'Libertinus Mono, Normal';letter-spacing:0px;fill:#ff0000;fill-opacity:0.99;stroke-width:0.264583"
     id="path1273" />
</svg>
