<?xml version="1.0" encoding="UTF-8" standalone="no"?>
<svg
   width="21mm"
   height="21.10833mm"
   viewBox="0 0 21 21.10833"
   version="1.1"
   id="svg8"
   xmlns="http://www.w3.org/2000/svg"
   xmlns:svg="http://www.w3.org/2000/svg"
   xmlns:rdf="http://www.w3.org/1999/02/22-rdf-syntax-ns#"
   xmlns:cc="http://creativecommons.org/ns#"
   xmlns:dc="http://purl.org/dc/elements/1.1/">
  <defs
     id="defs2" />
  <metadata
     id="metadata5">
    <rdf:RDF>
      <cc:Work
         rdf:about="">
        <dc:format>image/svg+xml</dc:format>
        <dc:type
           rdf:resource="http://purl.org/dc/dcmitype/StillImage" />
      </cc:Work>
    </rdf:RDF>
  </metadata>
  <g
     id="layer1"
     transform="translate(-31.441403,-20.402083)"
     style="fill-opacity:1;fill:#ff9a00">
    <g
       id="g844"
       transform="rotate(-45.179951,42.333332,32.822916)"
       style="fill-opacity:1;fill:#ff9a00">
      <path
         style="fill:#ff9a00;stroke:#000000;stroke-width:1;stroke-linecap:round;stroke-linejoin:round;stroke-miterlimit:4;stroke-dasharray:none;stroke-opacity:1;fill-opacity:1"
         d="m 36.178072,30.457992 c -0.657665,4.121615 0.08951,4.498141 -1.413067,6.364318 l 6.154505,6.193286 c 1.876753,-1.865001 2.177042,-1.807923 4.070638,-3.305947 0.946798,-0.749012 2.733141,-2.23163 3.7937,-3.304463 3.706486,-3.749381 4.16484,-4.635261 3.607066,-5.195899 -0.561879,-0.564766 -1.709581,-0.21409 -5.458743,3.593251 5.34256,-5.389041 6.20603,-6.540176 5.456502,-7.282893 -0.754042,-0.747191 -2.155979,0.297566 -6.946152,5.033139 5.898988,-5.866333 6.452891,-7.027498 5.823811,-7.652382 -0.633249,-0.629025 -1.513524,-0.322924 -7.688813,5.775628 4.970779,-4.953011 5.631435,-5.96918 4.885434,-6.719881 -0.746,-0.750701 -2.232547,0.386925 -6.938111,5.029628 -0.938377,0.9325 -2.82121,2.75993 -2.266632,-0.417535 0.940419,-5.388136 -2.002614,-4.863136 -3.080138,1.88975 z"
         id="path932" />
    </g>
  </g>
</svg>
