<?xml version="1.0" encoding="UTF-8" standalone="no"?>
<svg
   width="44.737934mm"
   height="44.653866mm"
   viewBox="0 0 44.737934 44.653865"
   version="1.1"
   id="svg8"
   sodipodi:docname="pen-recognize-filled.svg"
   inkscape:version="1.1.2 (0a00cf5339, 2022-02-04)"
   xmlns:inkscape="http://www.inkscape.org/namespaces/inkscape"
   xmlns:sodipodi="http://sodipodi.sourceforge.net/DTD/sodipodi-0.dtd"
   xmlns="http://www.w3.org/2000/svg"
   xmlns:svg="http://www.w3.org/2000/svg"
   xmlns:rdf="http://www.w3.org/1999/02/22-rdf-syntax-ns#"
   xmlns:cc="http://creativecommons.org/ns#"
   xmlns:dc="http://purl.org/dc/elements/1.1/">
  <sodipodi:namedview
     id="namedview1897"
     pagecolor="#ffffff"
     bordercolor="#666666"
     borderopacity="1.0"
     inkscape:pageshadow="2"
     inkscape:pageopacity="0.0"
     inkscape:pagecheckerboard="0"
     inkscape:document-units="mm"
     showgrid="false"
     inkscape:snap-global="false"
     inkscape:zoom="3.0978045"
     inkscape:cx="87.965527"
     inkscape:cy="69.242589"
     inkscape:window-width="1920"
     inkscape:window-height="1032"
     inkscape:window-x="0"
     inkscape:window-y="0"
     inkscape:window-maximized="1"
     inkscape:current-layer="svg8" />
  <defs
     id="defs2" />
  <metadata
     id="metadata5">
    <rdf:RDF>
      <cc:Work
         rdf:about="">
        <dc:format>image/svg+xml</dc:format>
        <dc:type
           rdf:resource="http://purl.org/dc/dcmitype/StillImage" />
      </cc:Work>
    </rdf:RDF>
  </metadata>
  <path
     style="fill:#ff0000;fill-opacity:0.5;stroke:none;stroke-width:0.264583px;stroke-linecap:butt;stroke-linejoin:miter;stroke-opacity:1"
     d="M 17.293805,29.652272 C 12.185363,33.467617 3.725344,29.937048 2.775784,23.651477 2.22191,21.389853 3.49247,18.331352 6.092082,18.217084 c 2.888137,-0.199531 5.123252,3.388239 3.617374,5.886236 -1.798111,5.038977 -6.93507,8.302214 -7.829918,13.749012 -0.436817,2.005332 0.881049,4.606816 3.151063,4.550182 3.101407,0.154245 5.840648,-1.6629 8.884305,-1.952942 5.020628,-0.935176 10.33339,-0.226164 14.896876,2.081602 4.246822,1.924355 9.570547,0.300404 12.284704,-3.420466 1.448431,-1.963468 2.164063,-4.493945 1.977151,-6.923877 -0.13885,-2.063147 -1.889047,-3.574978 -3.804241,-4.046535 -2.885641,-0.81982 -5.975587,0.320366 -8.1701,2.22258 -2.521881,1.314724 -5.316525,-0.08078 -7.62657,-1.195849 -1.956552,-0.819807 -4.52287,-1.13151 -6.178921,0.485245 z"
     id="path10832" />
  <path
     style="fill:#ff0000;fill-opacity:0.994189;stroke:none;stroke-width:3;stroke-linecap:round;stroke-linejoin:round;stroke-opacity:1"
     id="path10713"
     d="m 21.289362,25.697789 c -0.0331,0.027 -0.06825,0.05176 -0.09932,0.08101 -0.150389,0.141498 -0.273807,0.309271 -0.414671,0.45944 -0.150066,0.15998 -0.273131,0.273675 -0.4333,0.42743 -0.555377,0.495454 -1.048974,1.056132 -1.620427,1.534491 -0.127684,0.106883 -0.26232,0.20544 -0.39348,0.308161 -0.412699,0.29114 -0.821893,0.60039 -1.267016,0.843795 -0.15561,0.08509 -0.321192,0.151202 -0.480271,0.229827 -0.627431,0.320113 -0.314148,0.1638 -0.939748,0.469138 -0.433614,0.204254 -0.892248,0.353201 -1.366642,0.432254 -0.153116,0.02552 -0.308567,0.03491 -0.462541,0.0548 -0.878808,0.113457 -0.03628,0.0198 -0.913498,0.1118 -0.630075,0.0063 -1.264376,-0.01442 -1.882515,-0.145693 -0.32229,-0.06844 -0.513334,-0.136339 -0.824831,-0.234175 C 9.81583,30.089052 9.413748,29.964346 9.054887,29.749904 8.940499,29.681554 8.837916,29.595569 8.726742,29.522256 8.072506,29.090813 8.710242,29.544406 8.088412,29.091321 7.659545,28.732807 7.315489,28.29108 6.947091,27.875776 6.307916,27.155225 6.865701,27.811356 6.253042,27.078794 5.63586,26.300618 5.13314,25.44259 4.720946,24.544365 4.392932,23.811965 4.280116,23.073067 4.30581,22.275524 c 0.0051,-0.158223 0.02431,-0.315698 0.03647,-0.473549 0.106184,-0.712198 0.339783,-1.426714 0.808436,-1.99318 0.07753,-0.0937 0.171358,-0.173084 0.257037,-0.259626 0.10204,-0.07448 0.198458,-0.15705 0.306105,-0.223426 0.370183,-0.228253 0.847046,-0.38449 1.288257,-0.317534 0.08588,0.01303 0.166801,0.04799 0.250202,0.072 0.104536,0.04555 0.213485,0.08232 0.31361,0.136635 0.497041,0.269608 0.910095,0.710448 1.222729,1.1699 0.08438,0.123997 0.155115,0.256479 0.232672,0.384717 0.06115,0.135506 0.133261,0.266714 0.183449,0.406518 0.209677,0.584068 0.234929,1.246034 0.147427,1.854672 -0.024,0.166857 -0.06503,0.330904 -0.09756,0.496357 -0.295715,1.180612 -0.920902,2.184867 -1.60876,3.177938 -0.816558,1.081146 -1.734712,2.080808 -2.655439,3.075423 -0.927958,1.000153 -1.708269,2.114833 -2.423653,3.268285 -0.436713,0.74102 -0.844539,1.500152 -1.189443,2.287269 -0.223948,0.511082 -0.271988,0.662642 -0.463508,1.178581 -0.27699,0.864705 -0.500389,1.760299 -0.536481,2.670626 -0.0063,0.158489 3.68e-4,0.31722 5.53e-4,0.47583 0.0308,0.794937 0.264891,1.561369 0.731218,2.215761 0.09148,0.128377 0.198011,0.245693 0.297017,0.368536 0.569792,0.613972 1.314376,1.010527 2.136066,1.192692 0.183299,0.04063 0.370336,0.06272 0.555504,0.09408 1.208614,0.154622 2.405608,-0.07017 3.577331,-0.344286 1.265652,-0.33109 2.518207,-0.708911 3.771055,-1.083735 1.251197,-0.380463 2.513384,-0.721164 3.790686,-1.005024 1.006123,-0.206256 2.026695,-0.364153 3.055676,-0.392348 0.183122,-0.0049 0.366384,-8.05e-4 0.549578,-0.0011 0.946591,0.01956 1.873403,0.217902 2.777009,0.482724 0.771834,0.23811 1.494401,0.599894 2.211411,0.962892 0.74082,0.394077 1.49369,0.76443 2.264725,1.097574 0.657341,0.249937 1.314736,0.522404 2.003679,0.679556 0.136634,0.03117 0.27555,0.0517 0.413326,0.07754 0.898867,0.14352 1.801533,0.264866 2.709529,0.334402 0.962747,0.07917 1.925054,-0.0016 2.881043,-0.113046 0.847096,-0.12762 1.698682,-0.256591 2.528037,-0.473936 0.190416,-0.04991 0.378355,-0.108544 0.567532,-0.162817 1.052897,-0.322816 2.035307,-0.825498 2.909485,-1.487392 0.182636,-0.138282 0.355104,-0.289121 0.532656,-0.433682 0.878743,-0.783026 1.608097,-1.720197 2.186598,-2.737642 0.114901,-0.202085 0.214986,-0.412003 0.32248,-0.618004 0.574393,-1.171005 0.881425,-2.436975 1.126028,-3.70752 0.174126,-1.029493 0.264399,-2.081431 0.172862,-3.124251 -0.0172,-0.196132 -0.04867,-0.390799 -0.07301,-0.5862 -0.08994,-0.586635 -0.296524,-1.146468 -0.557961,-1.678836 -0.08033,-0.163583 -0.162763,-0.326952 -0.261392,-0.480528 -0.255738,-0.398218 -0.414724,-0.53969 -0.734131,-0.884381 -0.507447,-0.477627 -1.079266,-0.887617 -1.719021,-1.176313 -0.39832,-0.179745 -0.530122,-0.206772 -0.943042,-0.334417 -0.994059,-0.19337 -2.00108,-0.107227 -2.991232,0.06165 -1.019729,0.229651 -1.972318,0.663209 -2.905466,1.117233 -0.865519,0.435792 -1.744008,0.845537 -2.600675,1.298156 -0.73078,0.494898 -1.510522,0.890822 -2.351898,1.166132 -0.41506,0.117938 -0.843777,0.199522 -1.275944,0.133597 -0.227953,-0.03476 -0.319403,-0.07752 -0.537084,-0.15255 -0.298421,-0.120498 -0.552197,-0.299966 -0.881752,-0.335152 -0.149491,-0.01598 -0.300705,-0.0041 -0.451057,-0.0062 -0.591486,-0.468456 -1.264307,0.355196 -0.672822,0.82365 v 0 c 0.07889,0.179474 0.127172,0.37526 0.236661,0.538425 0.29153,0.434438 0.784889,0.58416 1.253013,0.747133 0.15769,0.0391 0.313468,0.08663 0.473072,0.117294 0.823989,0.158287 1.654078,0.06727 2.447134,-0.190088 0.155074,-0.05475 0.311971,-0.104723 0.465225,-0.16424 0.74743,-0.290278 1.440416,-0.702329 2.190703,-0.986846 0.854636,-0.425137 1.71699,-0.835033 2.568606,-1.266112 0.768834,-0.372666 1.548909,-0.740057 2.388876,-0.929701 0.237757,-0.0436 0.430207,-0.08835 0.672308,-0.09649 0.439858,-0.01479 0.850196,0.137707 1.255324,0.287381 0.569041,0.193569 1.1272,0.428551 1.52205,0.896686 0.05789,0.078 0.120787,0.152602 0.173633,0.233984 0.312021,0.480487 0.512555,1.024894 0.605513,1.586002 0.01796,0.136283 0.0407,0.27204 0.05392,0.408848 0.08261,0.854798 0.01285,1.716622 -0.06298,2.568956 -0.06258,0.471023 -0.06903,0.593722 -0.169837,1.0578 -0.15065,0.693556 -0.368583,1.372812 -0.619504,2.03687 -0.13389,0.316459 -0.281022,0.688024 -0.448533,0.990095 -0.344075,0.620464 -0.806259,1.180654 -1.321356,1.669526 -0.134199,0.113413 -0.264436,0.231527 -0.402589,0.340235 -0.663552,0.522104 -1.404218,0.935645 -2.214862,1.190512 -0.150542,0.0458 -0.299813,0.09587 -0.451626,0.137401 -0.746197,0.204136 -1.51632,0.314078 -2.278505,0.440849 -0.808684,0.105439 -1.624582,0.170645 -2.440317,0.107568 -0.764117,-0.05465 -1.53308,-0.121932 -2.254167,-0.39751 -0.670057,-0.249123 -1.366216,-0.432339 -2.012461,-0.741154 -0.713235,-0.333228 -1.420727,-0.678449 -2.112232,-1.053887 -0.854698,-0.464795 -1.725105,-0.907684 -2.665333,-1.183032 -1.141737,-0.335422 -2.314714,-0.573405 -3.510942,-0.589324 -0.225641,0.0011 -0.451385,-0.0034 -0.676924,0.0033 -1.170861,0.03509 -2.333039,0.210188 -3.477729,0.44726 -1.339113,0.296187 -2.665153,0.644572 -3.974993,1.049054 C 9.500292,40.068969 8.297256,40.432653 7.082362,40.754057 6.236207,40.955721 5.370769,41.144866 4.494517,41.064056 4.090351,41.011856 3.668952,40.936653 3.353941,40.662882 3.078264,40.368828 2.924222,40.075503 2.914944,39.66755 c 0.0054,-0.779239 0.156801,-1.545649 0.416769,-2.281784 0.161109,-0.435005 0.203418,-0.567866 0.3916,-0.998533 0.302035,-0.691219 0.66739,-1.353385 1.056975,-2.000079 0.634173,-1.013498 1.327857,-1.990538 2.150297,-2.866822 0.470716,-0.510426 0.941166,-1.021001 1.408389,-1.534537 0.3041,-0.334239 0.736767,-0.803935 1.022235,-1.149398 0.17535,-0.212203 0.339737,-0.432964 0.509605,-0.649445 0.884061,-1.29883 1.714415,-2.63986 2.084817,-4.178249 0.11606,-0.664752 0.182207,-0.887799 0.190375,-1.568767 0.01263,-1.052637 -0.230581,-2.09113 -0.676987,-3.044655 C 11.12227,18.782517 11.06708,18.616646 10.604914,18.075163 10.062946,17.440184 9.397019,16.8985 8.632976,16.541451 8.382691,16.424489 8.113778,16.350918 7.854179,16.255652 c -0.290121,-0.05317 -0.57634,-0.13466 -0.870363,-0.1595 -1.083193,-0.09151 -2.20824,0.260868 -3.108301,0.839762 -0.234147,0.150598 -0.444286,0.334605 -0.666429,0.501909 -0.202645,0.204568 -0.421698,0.394536 -0.607935,0.613702 -0.170153,0.200239 -0.318277,0.41852 -0.457835,0.640518 -0.548301,0.872184 -0.874386,1.850293 -1.010573,2.863948 -0.02017,0.251166 -0.05181,0.501693 -0.06052,0.753498 -0.04277,1.238312 0.18766,2.467822 0.69467,3.602135 0.09819,0.200344 0.189228,0.404244 0.294576,0.601033 0.494737,0.924154 1.146881,1.763243 1.806289,2.576656 0.79987,0.890821 1.629738,1.774596 2.64674,2.430368 0.398217,0.228125 0.699011,0.425487 1.137395,0.576606 0.312526,0.107738 0.828189,0.197036 1.161292,0.245907 0.183587,0.02693 0.367316,0.05583 0.552486,0.06843 0.187895,0.01279 0.37665,0.0051 0.564975,0.0077 0.178208,-0.0051 0.356707,-0.0043 0.534628,-0.01555 0.280802,-0.01774 0.768711,-0.08013 1.04788,-0.116577 0.542767,-0.07087 1.086381,-0.14581 1.616551,-0.284561 0.353887,-0.07805 0.66696,-0.136814 1.010778,-0.25375 0.167569,-0.05699 0.329463,-0.129089 0.492877,-0.196774 0.491817,-0.203713 0.973965,-0.42909 1.449025,-0.668123 0.358834,-0.19345 0.643652,-0.332837 0.976942,-0.570217 0.1558,-0.110966 0.298611,-0.238618 0.447149,-0.358855 0.410872,-0.332583 0.810105,-0.677167 1.181196,-1.053157 0.646795,-0.648486 1.29647,-1.294778 1.965458,-1.921128 0.330423,-0.317628 0.656722,-0.643415 0.920232,-1.018705 0.18896,-0.197741 -0.09505,-0.46087 -0.284007,-0.263128 z" />
  <circle
     style="fill:#ff0000;fill-opacity:1;fill-rule:evenodd;stroke:#000000;stroke-width:1;stroke-linecap:round;stroke-linejoin:round;stroke-miterlimit:4;stroke-dasharray:none"
     id="path837"
     transform="rotate(32.67558)"
     cx="-33.041737"
     cy="4.7356901"
     r="0" />
  <circle
     style="fill:#7a492c;fill-opacity:1;fill-rule:evenodd;stroke:#000000;stroke-width:1;stroke-linecap:round;stroke-linejoin:round;stroke-miterlimit:4;stroke-dasharray:none"
     id="path837-4"
     transform="rotate(32.67558)"
     cx="-33.041737"
     cy="4.7356901"
     r="0" />
  <g
     aria-label="*"
     transform="rotate(23.489008,18.130374,-79.964346)"
     id="text10607"
     style="font-size:10.0261px;line-height:1.25;letter-spacing:0px;fill:#ff0000;stroke-width:0.264583">
    <path
       d="m 48.108803,3.3407834 c 0.0401,-0.802084 0.320834,-1.6442721 0.601563,-2.5666687 0.360938,-1.12291755 0.721876,-2.3260435 0.721876,-3.4890653 0,-1.4838553 -0.882293,-2.1656267 -2.00521,-2.1656267 -1.122918,0 -2.045314,0.5614588 -2.045314,2.1255225 0,2.00520996 1.323438,3.6494821 1.564063,6.1359424 -1.644272,-0.6416672 -3.408856,-2.4463561 -5.414066,-3.04791908 -1.403647,-0.40104198 -2.326044,0.24062519 -2.646877,1.28333438 -0.320834,1.0828133 -0.04011,2.1255225 1.443751,2.5666687 1.002605,0.3208336 2.00521,0.2406252 3.088023,0.200521 1.002605,-0.080208 2.085418,-0.1604168 3.24844,0.080208 -1.082813,1.4036469 -3.328648,2.5666687 -4.451566,4.2911492 -0.842188,1.2432301 -0.48125,2.2859402 0.441146,2.9276072 0.922397,0.641667 2.00521,0.641667 2.887502,-0.641667 1.122918,-1.6843772 0.922397,-3.7697955 2.125523,-5.9755265 1.002605,1.4838554 1.443751,3.9302115 2.76719,5.5343795 0.9625,1.163022 2.085418,1.163022 2.927606,0.441147 0.882293,-0.721876 1.24323,-1.7645856 0.240625,-2.9677116 C 52.359848,6.5090151 50.314534,6.1881815 48.590054,4.3834926 50.27443,3.862138 52.76089,4.1428674 54.685892,3.3407834 56.049434,2.7793246 56.370268,1.6965113 55.969226,0.65380211 55.52808,-0.38890705 54.645788,-0.99047003 53.202036,-0.42901125 51.317139,0.33296852 50.314534,2.1777617 48.108803,3.3407834 Z"
       style="font-size:40.1042px;font-family:'Libertinus Mono';-inkscape-font-specification:'Libertinus Mono, Normal'"
       id="path985" />
  </g>
  <g
     id="g915"
     transform="translate(-29.996969,-13.617796)">
    <path
       style="fill:#ff0000;fill-opacity:1;stroke:none;stroke-width:0.5;stroke-linecap:butt;stroke-linejoin:miter;stroke-miterlimit:4;stroke-dasharray:none;stroke-opacity:1"
       d="M 62.041675,14.500575 46.328871,38.998743 44.754453,53.705366 57.464402,46.140927 73.177206,21.642758"
       id="path835" />
    <path
       style="fill:#7a492c;fill-opacity:1;stroke:none;stroke-width:0.265;stroke-linecap:butt;stroke-linejoin:miter;stroke-miterlimit:4;stroke-dasharray:none;stroke-opacity:1"
       d="m 46.238746,39.741181 -0.711578,6.838289 5.361489,3.505306 5.921975,-3.554883 z"
       id="path867" />
    <circle
       style="fill:#ff0000;fill-opacity:1;fill-rule:evenodd;stroke:#000000;stroke-width:1;stroke-linecap:round;stroke-linejoin:round;stroke-miterlimit:4;stroke-dasharray:none"
       id="path837-3"
       sodipodi:type="arc"
       sodipodi:cx="66.660484"
       sodipodi:cy="7.7597671"
       sodipodi:rx="6.614583"
       sodipodi:ry="1.3229166"
       sodipodi:start="0.1392423"
       sodipodi:end="3.1000315"
       sodipodi:arc-type="arc"
       sodipodi:open="true"
       transform="rotate(32.67558)"
       d="m 73.211048,7.9433783 a 6.614583,1.3229166 0 0 1 -6.873495,1.1377279 6.614583,1.3229166 0 0 1 -6.28594,-1.266373" />
    <circle
       style="fill:#7a492c;fill-opacity:1;fill-rule:evenodd;stroke:#000000;stroke-width:1;stroke-linecap:round;stroke-linejoin:round;stroke-miterlimit:4;stroke-dasharray:none"
       id="path837-4-9"
       sodipodi:type="arc"
       sodipodi:cx="66.664062"
       sodipodi:cy="14.335733"
       sodipodi:rx="3.3248177"
       sodipodi:ry="0.66496354"
       sodipodi:start="0.1392423"
       sodipodi:end="3.0178387"
       sodipodi:arc-type="arc"
       sodipodi:open="true"
       transform="rotate(32.67558)"
       d="m 69.956701,14.428026 a 3.3248177,0.66496354 0 0 1 -3.318386,0.572651 3.3248177,0.66496354 0 0 1 -3.273643,-0.582862" />
    <path
       style="fill:none;fill-opacity:1;stroke:#000000;stroke-width:1;stroke-linecap:butt;stroke-linejoin:miter;stroke-miterlimit:4;stroke-dasharray:none;stroke-opacity:1"
       d="M 62.041675,14.500575 46.328871,38.998743 44.754453,53.705366 57.464402,46.140927 73.177206,21.642758"
       id="path865" />
    <path
       style="fill:none;fill-opacity:1;stroke:#000000;stroke-width:1;stroke-linecap:butt;stroke-linejoin:miter;stroke-miterlimit:4;stroke-dasharray:none;stroke-opacity:1"
       d="M 64.874404,17.689201 49.1616,42.187369 m 4.044359,2.573006 15.712804,-24.498169"
       id="path865-7"
       sodipodi:nodetypes="cccc" />
    <ellipse
       style="fill:#ff0000;fill-opacity:1;fill-rule:evenodd;stroke:#000000;stroke-width:1;stroke-linecap:round;stroke-linejoin:round;stroke-miterlimit:4;stroke-dasharray:none"
       id="path837-6"
       transform="rotate(32.67558)"
       cx="66.66568"
       cy="-21.261393"
       rx="6.614583"
       ry="1.3229166" />
  </g>
</svg>
