<?xml version="1.0" encoding="UTF-8" standalone="no"?>
<svg
   width="44.737934mm"
   height="44.653866mm"
   viewBox="0 0 44.737934 44.653865"
   version="1.1"
   id="svg8"
   xmlns="http://www.w3.org/2000/svg"
   xmlns:svg="http://www.w3.org/2000/svg"
   xmlns:rdf="http://www.w3.org/1999/02/22-rdf-syntax-ns#"
   xmlns:cc="http://creativecommons.org/ns#"
   xmlns:dc="http://purl.org/dc/elements/1.1/">
  <defs
     id="defs2" />
  <metadata
     id="metadata5">
    <rdf:RDF>
      <cc:Work
         rdf:about="">
        <dc:format>image/svg+xml</dc:format>
        <dc:type
           rdf:resource="http://purl.org/dc/dcmitype/StillImage" />
      </cc:Work>
    </rdf:RDF>
  </metadata>
  <path
     style="fill:#ff0000;fill-opacity:0.99;fill-rule:nonzero;stroke:none;stroke-width:0.264999;stroke-linecap:round;stroke-linejoin:round;stroke-miterlimit:4;stroke-dasharray:none"
     id="path998"
     d="m 0.48407112,36.655235 c 0.25674214,0.369342 0.51323551,0.695498 0.84337398,0.987381 0.2638925,0.233313 0.4319744,0.371458 0.7597605,0.526732 0.6395732,0.302966 1.4095381,0.3518 2.0956205,0.305847 0.2564103,-0.01717 0.509712,-0.07492 0.7595921,-0.13593 0.8874032,-0.216654 1.6822763,-0.64509 2.3679525,-1.278734 0.9170893,-0.847494 1.5225775,-1.884014 2.1384563,-2.968649 0.2333284,-0.410917 0.4411694,-0.835566 0.639278,-1.265296 0.373142,-0.809403 0.823059,-1.962538 1.106312,-2.814364 0.290248,-0.87286 0.54271,-1.767754 0.691153,-2.681084 0.06805,-0.418654 0.115346,-0.842085 0.138035,-1.265968 0.02167,-0.404828 0.02206,-0.81175 -0.0053,-1.216208 -0.100586,-1.4845 -0.550489,-3.141993 -1.395443,-4.359408 -0.19725,-0.284135 -0.41785,-0.550888 -0.6638158,-0.792051 C 9.7262286,19.46923 9.4677176,19.262244 9.1937019,19.088352 8.7768245,18.823796 8.0469362,18.515283 7.5415618,18.529857 c -0.5117147,0.01476 -1.0297668,0.07862 -1.51851,0.23691 -0.6248882,0.202385 -1.0990171,0.724415 -1.4974037,1.214192 -0.2231628,0.274356 -0.3793908,0.597314 -0.5368048,0.915147 -0.5801605,1.171399 -0.8106163,2.513286 -0.8718867,3.820645 -0.015513,0.331024 -0.01752,0.662869 -0.012162,0.994277 0.024515,1.51634 0.1213806,3.034829 0.4242868,4.522094 0.2013205,0.988481 0.2703469,1.197171 0.5746776,2.141534 0.1033378,0.320663 0.2333647,0.632398 0.3586547,0.94493 0.1149715,0.286783 0.2413998,0.568406 0.361992,0.852657 0.3514209,0.828348 0.6925308,1.661314 1.1497044,2.434406 0.1731853,0.292864 0.3593052,0.576897 0.551172,0.857241 0.6796534,0.993069 1.466255,1.905299 2.3732326,2.677797 0.475664,0.405138 0.7308655,0.567069 1.2351433,0.928679 0.879946,0.630996 1.833731,1.135537 2.83915,1.505232 0.642061,0.236088 0.858646,0.284717 1.51597,0.449991 1.20659,0.30338 2.44441,0.378764 3.68109,0.286839 0.654123,-0.04862 1.101816,-0.178604 1.735904,-0.361965 1.199837,-0.346961 2.327305,-0.918634 3.405238,-1.563877 0.557027,-0.333434 0.998138,-0.648206 1.541346,-1.002884 1.53568,-1.002695 2.702059,-2.464948 3.861582,-3.891209 0.616604,-0.75845 1.198037,-1.54684 1.851317,-2.272335 0.696197,-0.787972 0.845997,-0.611056 1.073106,-0.526664 0.441401,0.162601 1.597447,0.611061 2.437011,0.747454 0.178279,0.02896 0.357848,0.06346 0.538262,0.05859 0.520241,-0.01405 1.193131,-0.08155 1.679791,-0.158179 0.192574,-0.03032 0.379524,-0.09156 0.567791,-0.14349 0.287732,-0.07937 0.889484,-0.262605 1.174992,-0.371853 0.172681,-0.06607 0.345927,-0.134351 0.509531,-0.221003 0.367041,-0.194401 0.558862,-0.298482 0.877454,-0.570199 0.140466,-0.1198 0.264833,-0.258918 0.397198,-0.388441 0.225136,-0.220305 0.545352,-0.526832 0.757567,-0.763003 0.120407,-0.134004 0.233933,-0.274833 0.347659,-0.414921 0.641755,-0.790514 1.056045,-1.737098 1.53357,-2.638789 0.622628,-1.175683 1.066146,-2.435593 1.403238,-3.727868 0.172294,-0.660512 0.316451,-1.328708 0.453543,-1.998099 0.0483,-0.23583 0.101884,-0.470768 0.138336,-0.708953 0.03693,-0.241341 0.109294,-0.485465 0.08163,-0.728335 -0.03464,-0.304189 -0.09711,-0.540704 -0.264425,-0.876727 -0.163797,-0.328967 -0.992384,-0.456852 -1.22606,-0.275265 -0.115753,0.08995 -0.301154,0.187458 -0.619831,0.67608 -0.130553,0.207194 -0.174241,0.462281 -0.246483,0.69882 -0.260371,0.852497 -0.396772,1.742432 -0.629782,2.602756 -0.130123,0.480442 -0.180907,0.701048 -0.340405,1.170761 -0.245867,0.724059 -0.563336,1.418193 -0.917712,2.090133 -0.39527,0.749483 -0.736444,1.542916 -1.265975,2.202013 -0.175065,0.2179 -0.301721,0.367672 -0.512498,0.550597 -0.361536,0.313761 -0.793245,0.509008 -1.225041,0.690944 -0.520799,0.219437 -1.318028,0.353482 -1.608012,0.299688 -0.305674,-0.0567 -0.60213,-0.152184 -0.948882,-0.227347 -0.546631,-0.118491 -1.045454,-0.400047 -1.553054,-0.634533 -0.238898,-0.110359 -0.823578,-0.373484 -1.069361,-0.405758 -0.41464,-0.05444 -0.835946,-0.0764 -1.252614,-0.0459 -0.586997,0.04298 -1.276297,0.475732 -1.730229,0.833329 -0.532987,0.419876 -0.610519,0.495692 -1.10273,1.001019 -0.728434,0.747848 -1.335125,1.604201 -1.986905,2.423599 -0.959797,1.206629 -1.925366,2.446249 -3.196404,3.311791 -1.274286,0.867754 -2.597914,1.700001 -4.075925,2.126415 -0.46276,0.133509 -0.724911,0.20841 -1.351772,0.268205 -0.619791,0.05912 -1.246587,-0.01812 -1.856795,-0.138377 -1.26357,-0.249019 -2.382389,-0.586433 -3.443283,-1.390232 -0.50434,-0.382118 -1.027197,-0.747623 -1.497568,-1.176554 C 10.066571,36.942494 9.5791656,36.376655 9.1333186,35.778323 8.9760678,35.56729 8.820582,35.35511 8.6772582,35.133828 8.5349873,34.914174 8.4079611,34.684092 8.2772969,34.456685 7.7410311,33.523372 7.2611719,32.554756 6.926921,31.521402 6.6807897,30.760475 6.5993653,30.537229 6.4355274,29.739841 6.1707586,28.451231 6.0702699,27.127096 6.1304444,25.813194 c 0.049289,-1.076159 0.09287,-2.300811 0.635647,-3.253832 0.057358,-0.100701 0.1292837,-0.191875 0.2072254,-0.276774 0.048625,-0.05296 0.1075381,-0.09776 0.169451,-0.133485 0.021803,-0.01258 0.099335,-0.0077 0.074419,-0.0072 -0.5482669,0.01045 -0.424142,-0.116626 -0.03121,0.04927 0.1249638,0.05276 0.2292517,0.147318 0.3256026,0.244063 0.4758035,0.477751 0.7666214,1.113266 0.9633844,1.760789 0.077013,0.253423 0.1492462,0.509991 0.1912406,0.772188 0.044815,0.279831 0.070487,0.564454 0.068286,0.848044 -0.00711,0.915642 -0.00814,1.106791 -0.1754693,2.039736 -0.3014166,1.680586 -0.8980123,3.291459 -1.6905035,4.780439 -0.1826768,0.343223 -0.3816432,0.678195 -0.5844837,1.009424 -0.3134978,0.511931 -0.630889,0.97259 -0.987986,1.447245 C 5.0429099,35.42954 4.7961278,35.74488 4.4929048,36.033518 4.3620222,36.158107 4.2223694,36.272131 4.0781245,36.380089 3.861384,36.542304 3.7470029,36.670036 3.5346519,36.80495 3.3461364,36.924721 2.8141395,36.835012 2.6071892,36.738715 2.5161829,36.696366 2.4344071,36.633353 2.3546054,36.571486 2.0987022,36.373093 1.8527767,36.160012 1.6257412,35.925789 1.4560159,35.718529 1.2472681,35.532812 1.0648517,35.368122 c -0.3335459,-0.328223 -0.93174248,0.0015 -0.89543957,0.315511 0.0486859,0.421152 0.0764172,0.628874 0.31465899,0.971602 z" />
  <path
     d="M 8.9888954,9.2345936 C 9.1868008,8.4562743 9.6284996,7.6862165 10.086062,6.8375346 10.661897,5.8081492 11.25359,4.7001388 11.483542,3.5600765 11.776928,2.1055144 11.046853,1.2627561 9.9461027,1.0407339 8.8453532,0.81871173 7.8301547,1.1867113 7.5209096,2.7198984 7.1244415,4.685523 8.0966497,6.5590041 7.8409045,9.0439547 6.3559619,8.0898509 4.9830337,5.9718969 3.1363495,4.9857414 1.839706,4.3150888 0.80864886,4.7617133 0.28798548,5.7204032 -0.24060714,6.7184055 -0.17158323,7.7960358 1.195756,8.5218597 c 0.9193774,0.512734 1.9180483,0.6323431 2.987415,0.8071234 0.9986709,0.119609 2.075967,0.2550769 3.168453,0.7209029 -1.3389649,1.161845 -3.7704159,1.857863 -5.2121284,3.326278 -1.0713725,1.05217 -0.9237235,2.145659 -0.146406,2.957034 0.7773176,0.811375 1.8387548,1.025468 2.9573692,-0.05808 1.4337828,-1.429102 1.6495475,-3.512999 3.2650368,-5.437305 0.6894258,1.652796 0.6381719,4.138081 1.61831,5.97225 0.7135484,1.330366 1.8142974,1.552388 2.7825884,1.01128 1.007604,-0.533179 1.56758,-1.483939 0.822649,-2.861548 C 12.529601,13.180793 10.588098,12.461895 9.2544824,10.351871 11.008688,10.173842 13.390558,10.94065 15.436144,10.535009 16.88378,10.254233 17.412372,9.2562303 17.225411,8.1548118 16.999137,7.0454642 16.253203,6.2813309 14.726943,6.5462487 12.728597,6.9205058 11.381034,8.5306464 8.9888954,9.2345936 Z"
     style="font-size:40.1042px;line-height:1.25;font-family:'Libertinus Mono';-inkscape-font-specification:'Libertinus Mono, Normal';letter-spacing:0px;fill:#ff0000;fill-opacity:0.99;stroke-width:0.264583"
     id="path1273"
     transform="translate(0.82989899,-0.78645824)" />
  <g
     id="g1495"
     transform="translate(0.82989899,-0.78645823)"
     style="display:inline">
    <path
       style="fill:#ff0000;fill-opacity:1;stroke:none;stroke-width:0.5;stroke-linecap:butt;stroke-linejoin:miter;stroke-miterlimit:4;stroke-dasharray:none;stroke-opacity:1"
       d="M 31.978845,1.654789 16.266041,26.152957 14.691623,40.85958 27.401572,33.295141 43.114376,8.796972"
       id="path835" />
    <path
       style="fill:#7a492c;fill-opacity:1;stroke:none;stroke-width:0.265;stroke-linecap:butt;stroke-linejoin:miter;stroke-miterlimit:4;stroke-dasharray:none;stroke-opacity:1"
       d="m 16.175916,26.895395 -0.711578,6.838289 5.361489,3.505306 5.921975,-3.554883 z"
       id="path867" />
    <path
       id="path837-4-3"
       style="fill:#7a492c;fill-rule:evenodd;stroke:#000000;stroke-linecap:round;stroke-linejoin:round"
       transform="rotate(32.67558)"
       d="m 37.716382,19.845571 a 3.3248177,0.66496354 0 0 1 -3.318386,0.572651 3.3248177,0.66496354 0 0 1 -3.273642,-0.582861" />
    <path
       style="fill:none;fill-opacity:1;stroke:#000000;stroke-width:1;stroke-linecap:butt;stroke-linejoin:miter;stroke-miterlimit:4;stroke-dasharray:none;stroke-opacity:1"
       d="M 31.978845,1.654789 16.266041,26.152957 14.691623,40.85958 27.401572,33.295141 43.114376,8.796972"
       id="path865" />
    <ellipse
       style="display:inline;fill:#ff0000;fill-opacity:1;fill-rule:evenodd;stroke:#000000;stroke-width:1;stroke-linecap:round;stroke-linejoin:round;stroke-miterlimit:4;stroke-dasharray:none"
       id="path837-6"
       transform="rotate(32.67558)"
       cx="34.425362"
       cy="-15.843848"
       rx="6.614583"
       ry="1.3229166" />
    <path
       id="path837-7"
       style="fill:#ff0000;fill-rule:evenodd;stroke:#000000;stroke-linecap:round;stroke-linejoin:round"
       transform="rotate(32.67558)"
       d="m 40.970729,13.360923 a 6.614583,1.3229166 0 0 1 -6.873495,1.137728 6.614583,1.3229166 0 0 1 -6.285939,-1.266373" />
    <path
       style="fill:none;fill-opacity:1;stroke:#000000;stroke-width:1;stroke-linecap:butt;stroke-linejoin:miter;stroke-miterlimit:4;stroke-dasharray:none;stroke-opacity:1"
       d="M 34.811574,4.843415 19.09877,29.341583 M 23.143129,31.914589 38.855933,7.41642"
       id="path865-7" />
  </g>
</svg>
