<?xml version="1.0" encoding="UTF-8" standalone="no"?>
<svg
   width="44.737934mm"
   height="44.653866mm"
   viewBox="0 0 44.737934 44.653865"
   version="1.1"
   id="svg8"
   xmlns="http://www.w3.org/2000/svg"
   xmlns:svg="http://www.w3.org/2000/svg"
   xmlns:rdf="http://www.w3.org/1999/02/22-rdf-syntax-ns#"
   xmlns:cc="http://creativecommons.org/ns#"
   xmlns:dc="http://purl.org/dc/elements/1.1/">
  <defs
     id="defs2" />
  <metadata
     id="metadata5">
    <rdf:RDF>
      <cc:Work
         rdf:about="">
        <dc:format>image/svg+xml</dc:format>
        <dc:type
           rdf:resource="http://purl.org/dc/dcmitype/StillImage" />
      </cc:Work>
    </rdf:RDF>
  </metadata>
  <path
     style="fill:#ff0100;fill-opacity:0.98;stroke:none;stroke-width:0.264583px;stroke-linecap:butt;stroke-linejoin:miter;stroke-opacity:1"
     d="m 17.317606,30.079515 c -1.917177,1.737815 -5.08564,2.275238 -7.5538954,1.790939 -3.6136958,-0.709047 -6.6379193,-4.211933 -7.2416814,-7.373503 -0.5837119,-3.056579 0.93605,-5.832597 3.5277059,-6.065748 2.8833768,-0.259395 5.2568459,2.360655 4.2672779,6.373943 -1.2697258,5.149493 -7.5743951,8.046959 -8.2461511,14.0479 -0.406686,3.633013 1.1386937,4.500257 3.4056554,4.369661 3.1047867,0.05307 7.6302907,-2.398164 10.6252157,-3.013299 4.047521,-0.831331 6.478175,-0.03964 11.337568,2.199667 5.181058,2.387534 12.295234,0.242786 14.454616,-3.825212 1.419307,-2.673793 1.422966,-4.378984 1.272437,-6.811441 -0.283256,-4.57724 -3.993766,-5.346911 -6.03897,-4.634783 -1.521396,0.529741 -3.740619,1.771073 -5.604159,2.895332 -2.435172,1.469119 -5.676411,0.34285 -8.045798,-0.639848 -1.959514,-0.812704 -4.445054,-0.867949 -6.159821,0.686392 z"
     id="path10832" />
  <path
     style="fill:#ff0000;fill-opacity:0.99;stroke:none;stroke-width:3;stroke-linecap:round;stroke-linejoin:round;stroke-opacity:1"
     id="path10713"
     d="m 16.602764,30.032462 c -0.616663,0.340394 -0.308642,0.173952 -0.923957,0.49952 -0.426725,0.218279 -0.880261,0.382096 -1.351826,0.47657 -0.152203,0.0305 -0.307265,0.04495 -0.460509,0.06985 -0.874643,0.142042 -0.03561,0.02097 -0.909368,0.141517 -0.629535,0.02683 -1.264174,0.0268 -1.886264,-0.08425 -0.32435,-0.0579 -0.517505,-0.119534 -0.832026,-0.207164 C 9.8578406,30.759811 9.4519074,30.648277 9.0862472,30.445646 8.9696921,30.381061 8.8643609,30.298466 8.7508563,30.228815 8.0829048,29.818927 8.735087,30.251492 8.098819,29.818916 7.6584939,29.474572 7.3002224,29.044294 6.9184832,28.641219 6.2561611,27.941885 6.8350366,28.579486 6.198825,27.867283 5.5566059,27.109638 5.0261852,26.268452 4.5849322,25.38414 4.2332196,24.662821 4.0963788,23.927993 4.0960629,23.130037 c -6.01e-5,-0.158306 0.014007,-0.316323 0.021015,-0.474487 0.082913,-0.71528 0.2930981,-1.437031 0.7430378,-2.018472 0.074435,-0.09618 0.1656252,-0.178577 0.2484378,-0.267866 0.099558,-0.07777 0.1932334,-0.163435 0.2986597,-0.233285 0.3625462,-0.240198 0.8340632,-0.411896 1.2772223,-0.359357 0.086259,0.01022 0.1682766,0.04253 0.2524159,0.06381 0.1059652,0.04212 0.2160548,0.07532 0.317897,0.12634 0.5055649,0.253263 0.9327688,0.680405 1.2602127,1.129423 0.088377,0.12118 0.1633927,0.251286 0.2450884,0.376928 0.065534,0.133441 0.1418839,0.262229 0.1966022,0.400323 0.2286035,0.576923 0.2754192,1.237714 0.2078025,1.848881 -0.018548,0.16755 -0.054209,0.332848 -0.081329,0.499273 -0.2570753,1.189624 -0.8491959,2.213723 -1.5043188,3.228688 -0.7808837,1.107187 -1.6659653,2.136246 -2.5537831,3.160344 -0.8948645,1.029868 -1.6384273,2.169391 -2.3158339,3.345548 -0.4123271,0.754861 -0.7951921,1.526883 -1.1142564,2.324824 -0.20717,0.51811 -0.2502443,0.671156 -0.4248452,1.193063 -0.2486574,0.873274 -0.44274539,1.775674 -0.44914568,2.686694 -0.001131,0.15861 0.0107077,0.317039 0.0160626,0.475559 0.056695,0.793511 0.31564378,1.551905 0.80305318,2.190749 0.095616,0.125327 0.2059143,0.239108 0.3088718,0.358659 0.5895019,0.595073 1.3466162,0.967147 2.1738073,1.122432 0.1845259,0.03463 0.3721836,0.05062 0.5582754,0.07592 1.2130117,0.115145 2.4020425,-0.148544 3.5642079,-0.460708 1.2541875,-0.372168 2.4937627,-0.790616 3.7337267,-1.206078 1.238131,-0.421044 2.488542,-0.802706 3.755913,-1.128049 0.998865,-0.238942 2.013748,-0.430021 3.041263,-0.491741 0.182865,-0.01087 0.366164,-0.01275 0.549251,-0.01901 0.946725,-0.0113 1.87951,0.156722 2.791268,0.39195 0.779185,0.212825 1.51316,0.550864 2.241621,0.890298 0.753272,0.36972 1.517814,0.715336 2.299298,1.023171 0.665138,0.228378 1.331065,0.479272 2.024765,0.613884 0.137577,0.0267 0.277088,0.04269 0.415633,0.06403 0.903068,0.114145 1.80921,0.206004 2.71899,0.245906 0.964816,0.04775 1.923979,-0.06435 2.875827,-0.206895 0.842486,-0.155163 1.689416,-0.311824 2.511246,-0.556086 0.188687,-0.05609 0.374615,-0.120819 0.561923,-0.18123 1.041815,-0.356964 2.007318,-0.891401 2.859457,-1.581438 0.178031,-0.144161 0.345491,-0.300542 0.518236,-0.450813 0.852753,-0.811253 1.551172,-1.7717 2.096202,-2.807461 0.108253,-0.205723 0.201442,-0.418791 0.302164,-0.628187 0.535919,-1.189105 0.801523,-2.46441 1.004582,-3.742253 0.140476,-1.034622 0.196413,-2.088943 0.07093,-3.128225 -0.02358,-0.195468 -0.06138,-0.389005 -0.09208,-0.583509 -0.109014,-0.583392 -0.333736,-1.136194 -0.612387,-1.659757 -0.08562,-0.160878 -0.173334,-0.321473 -0.276916,-0.471753 -0.268583,-0.38967 -0.432095,-0.525885 -0.762568,-0.859981 -0.522746,-0.460833 -1.107625,-0.851966 -1.75645,-1.119656 -0.403967,-0.166666 -0.53658,-0.189382 -0.953441,-0.3035 -0.999834,-0.160866 -2.003512,-0.04194 -2.987633,0.159118 -1.011702,0.262767 -1.949653,0.727145 -2.867506,1.211344 -0.850854,0.463772 -1.71552,0.901934 -2.556979,1.382236 -0.71426,0.518455 -1.480683,0.939585 -2.312638,1.242174 -0.410995,0.131404 -0.836825,0.226919 -1.270911,0.175116 -0.228965,-0.02731 -0.32176,-0.06707 -0.541771,-0.134963 -0.30219,-0.110706 -0.561681,-0.281807 -0.892208,-0.306232 -0.149932,-0.0111 -0.300679,0.0057 -0.451019,0.0085 -0.606442,-0.448927 -1.252058,0.396218 -0.645617,0.845144 v 0 c 0.0847,0.176807 0.139336,0.370915 0.254085,0.530424 0.305536,0.424705 0.803513,0.558266 1.2767,0.705894 0.158881,0.03394 0.316125,0.07637 0.476644,0.101812 0.828711,0.131344 1.655392,0.01332 2.439638,-0.269753 0.153207,-0.05978 0.308392,-0.114836 0.459624,-0.179317 0.737571,-0.314486 1.416758,-0.748907 2.157372,-1.057728 0.840325,-0.452769 1.68886,-0.890556 2.525972,-1.349165 0.756278,-0.397528 1.523963,-0.790151 2.357303,-1.007073 0.236209,-0.05133 0.427098,-0.102326 0.668805,-0.118353 0.439142,-0.02912 0.854233,0.109921 1.264024,0.24631 0.575049,0.174918 1.14057,0.391582 1.55047,0.846598 0.0604,0.07607 0.125696,0.148584 0.181167,0.2282 0.327517,0.470061 0.54569,1.007642 0.656888,1.565422 0.02239,0.135625 0.04954,0.270569 0.06722,0.406873 0.110428,0.851652 0.0688,1.715291 0.02079,2.569644 -0.04719,0.472813 -0.04964,0.595657 -0.135268,1.062774 -0.127963,0.698098 -0.323639,1.384097 -0.552782,2.055981 -0.123504,0.320655 -0.258446,0.696818 -0.416022,1.004189 -0.323668,0.631349 -0.767346,1.206307 -1.266235,1.711709 -0.130431,0.117727 -0.256749,0.240023 -0.391285,0.353177 -0.646181,0.543455 -1.372974,0.980919 -2.17488,1.262074 -0.148969,0.05068 -0.296528,0.105591 -0.446907,0.152048 -0.739146,0.228351 -1.505277,0.363337 -2.262924,0.514884 -0.804818,0.131743 -1.618157,0.223508 -2.435515,0.187054 -0.765492,-0.02971 -1.536239,-0.07189 -2.265926,-0.323823 -0.677821,-0.22715 -1.379582,-0.387577 -2.03555,-0.675163 -0.723717,-0.309803 -1.442086,-0.631779 -2.145461,-0.984478 -0.869394,-0.436689 -1.753775,-0.850971 -2.702478,-1.095525 -1.152064,-0.298029 -2.332175,-0.497651 -3.528286,-0.47457 -0.225485,0.0085 -0.451256,0.01131 -0.676457,0.02536 -1.169095,0.07324 -2.324948,0.286123 -3.461302,0.560381 -1.328747,0.339679 -2.642727,0.731101 -3.938687,1.178063 -1.1903587,0.401413 -2.380901,0.804117 -3.5846732,1.164951 -0.839132,0.229137 -1.6979449,0.446391 -2.5763653,0.394186 -0.4056527,-0.039 -0.8292791,-0.100426 -1.1530464,-0.363783 -0.2851153,-0.284912 -0.4486365,-0.57306 -0.471207,-0.980494 -0.020002,-0.779001 0.1063365,-1.549939 0.3421717,-2.294156 0.1468442,-0.440026 0.1848001,-0.574195 0.3588443,-1.010767 0.2793439,-0.700697 0.6229211,-1.37442 0.9912198,-2.033469 0.6008006,-1.033631 1.2622689,-2.032762 2.055709,-2.935389 0.4538283,-0.525498 0.9073859,-1.051136 1.3576217,-1.579628 0.2930437,-0.343974 0.7101709,-0.827523 0.9842267,-1.182108 0.1683399,-0.217806 0.3254438,-0.443808 0.4881652,-0.665711 0.8412565,-1.326956 1.6274575,-2.694339 1.9475185,-4.243984 0.09433,-0.668182 0.153172,-0.893266 0.139139,-1.574139 -0.02169,-1.052489 -0.29862,-2.082503 -0.775869,-3.02097 C 10.795045,19.4167 10.734478,19.252716 10.254908,18.726585 9.6925297,18.109609 9.0092999,17.589919 8.2340247,17.257964 7.9800603,17.149223 7.7088921,17.084456 7.4463258,16.997703 7.1546259,16.954017 6.8659028,16.8819 6.5712263,16.866657 5.4856261,16.810503 4.3726628,17.199365 3.4919494,17.80729 c -0.2291137,0.15815 -0.4331433,0.348908 -0.6497149,0.523364 -0.1958693,0.211065 -0.4086138,0.408072 -0.5876081,0.633192 -0.1635357,0.205679 -0.304466,0.428672 -0.4367137,0.655101 -0.5195804,0.889593 -0.8136102,1.877811 -0.91668428,2.895366 -0.0119724,0.25169 -0.0354296,0.503116 -0.0359272,0.755071 -0.002384,1.239048 0.26800008,2.460394 0.81171408,3.577578 0.1046682,0.197037 0.202304,0.397861 0.3140105,0.591111 0.5245973,0.907537 1.2037453,1.724923 1.8893164,2.51641 0.8284817,0.864276 1.6867158,1.720531 2.7245526,2.342805 0.4054413,0.215024 0.7125085,0.402477 1.1555854,0.539226 0.3158717,0.09749 0.8341714,0.169936 1.1686903,0.207923 0.1843673,0.02093 0.3689407,0.04383 0.554423,0.05038 0.188212,0.0067 0.3766161,-0.0072 0.5649255,-0.01072 0.177948,-0.01091 0.356378,-0.01593 0.533838,-0.03297 0.280075,-0.02688 0.765691,-0.105144 1.043524,-0.150672 0.540168,-0.08852 1.08105,-0.181143 1.606416,-0.337102 0.351155,-0.08954 0.662146,-0.158481 1.00197,-0.286562 0.165622,-0.06242 0.32508,-0.139759 0.486201,-0.212735 0.484916,-0.219635 0.959461,-0.460608 1.426477,-0.714999 0.352338,-0.205044 0.67042,-0.310513 0.957837,-0.601758 0.399401,-0.404722 0.234053,-0.895825 -0.502018,-0.714845 z" />
  <path
     d="M 8.9888954,9.2345936 C 9.1868008,8.4562743 9.6284996,7.6862165 10.086062,6.8375346 10.661897,5.8081492 11.25359,4.7001388 11.483542,3.5600765 11.776928,2.1055144 11.046853,1.2627561 9.9461027,1.0407339 8.8453532,0.81871173 7.8301547,1.1867113 7.5209096,2.7198984 7.1244415,4.685523 8.0966497,6.5590041 7.8409045,9.0439547 6.3559619,8.0898509 4.9830337,5.9718969 3.1363495,4.9857414 1.839706,4.3150888 0.80864886,4.7617133 0.28798548,5.7204032 -0.24060714,6.7184055 -0.17158323,7.7960358 1.195756,8.5218597 c 0.9193774,0.512734 1.9180483,0.6323431 2.987415,0.8071234 0.9986709,0.119609 2.075967,0.2550769 3.168453,0.7209029 -1.3389649,1.161845 -3.7704159,1.857863 -5.2121284,3.326278 -1.0713725,1.05217 -0.9237235,2.145659 -0.146406,2.957034 0.7773176,0.811375 1.8387548,1.025468 2.9573692,-0.05808 1.4337828,-1.429102 1.6495475,-3.512999 3.2650368,-5.437305 0.6894258,1.652796 0.6381719,4.138081 1.61831,5.97225 0.7135484,1.330366 1.8142974,1.552388 2.7825884,1.01128 1.007604,-0.533179 1.56758,-1.483939 0.822649,-2.861548 C 12.529601,13.180793 10.588098,12.461895 9.2544824,10.351871 11.008688,10.173842 13.390558,10.94065 15.436144,10.535009 16.88378,10.254233 17.412372,9.2562303 17.225411,8.1548118 16.999137,7.0454642 16.253203,6.2813309 14.726943,6.5462487 12.728597,6.9205058 11.381034,8.5306464 8.9888954,9.2345936 Z"
     style="font-size:40.1042px;line-height:1.25;font-family:'Libertinus Mono';-inkscape-font-specification:'Libertinus Mono, Normal';letter-spacing:0px;fill:#ff0000;fill-opacity:0.99;stroke-width:0.264583"
     id="path1273"
     transform="translate(0.82989899,-0.78645824)" />
  <g
     id="g1495"
     transform="translate(0.82989899,-0.78645823)"
     style="display:inline">
    <path
       style="fill:#ff0000;fill-opacity:1;stroke:none;stroke-width:0.5;stroke-linecap:butt;stroke-linejoin:miter;stroke-miterlimit:4;stroke-dasharray:none;stroke-opacity:1"
       d="M 31.978845,1.654789 16.266041,26.152957 14.691623,40.85958 27.401572,33.295141 43.114376,8.796972"
       id="path835" />
    <path
       style="fill:#7a492c;fill-opacity:1;stroke:none;stroke-width:0.265;stroke-linecap:butt;stroke-linejoin:miter;stroke-miterlimit:4;stroke-dasharray:none;stroke-opacity:1"
       d="m 16.175916,26.895395 -0.711578,6.838289 5.361489,3.505306 5.921975,-3.554883 z"
       id="path867" />
    <path
       id="path837-4-3"
       style="fill:#7a492c;fill-rule:evenodd;stroke:#000000;stroke-linecap:round;stroke-linejoin:round"
       transform="rotate(32.67558)"
       d="m 37.716382,19.845571 a 3.3248177,0.66496354 0 0 1 -3.318386,0.572651 3.3248177,0.66496354 0 0 1 -3.273642,-0.582861" />
    <path
       style="fill:none;fill-opacity:1;stroke:#000000;stroke-width:1;stroke-linecap:butt;stroke-linejoin:miter;stroke-miterlimit:4;stroke-dasharray:none;stroke-opacity:1"
       d="M 31.978845,1.654789 16.266041,26.152957 14.691623,40.85958 27.401572,33.295141 43.114376,8.796972"
       id="path865" />
    <ellipse
       style="display:inline;fill:#ff0000;fill-opacity:1;fill-rule:evenodd;stroke:#000000;stroke-width:1;stroke-linecap:round;stroke-linejoin:round;stroke-miterlimit:4;stroke-dasharray:none"
       id="path837-6"
       transform="rotate(32.67558)"
       cx="34.425362"
       cy="-15.843848"
       rx="6.614583"
       ry="1.3229166" />
    <path
       id="path837-7"
       style="fill:#ff0000;fill-rule:evenodd;stroke:#000000;stroke-linecap:round;stroke-linejoin:round"
       transform="rotate(32.67558)"
       d="m 40.970729,13.360923 a 6.614583,1.3229166 0 0 1 -6.873495,1.137728 6.614583,1.3229166 0 0 1 -6.285939,-1.266373" />
    <path
       style="fill:none;fill-opacity:1;stroke:#000000;stroke-width:1;stroke-linecap:butt;stroke-linejoin:miter;stroke-miterlimit:4;stroke-dasharray:none;stroke-opacity:1"
       d="M 34.811574,4.843415 19.09877,29.341583 M 23.143129,31.914589 38.855933,7.41642"
       id="path865-7" />
  </g>
</svg>
