<?xml version="1.0" encoding="UTF-8" standalone="no"?>
<svg
   width="44.737934mm"
   height="44.653866mm"
   viewBox="0 0 44.737934 44.653865"
   version="1.1"
   id="svg8"
   xmlns="http://www.w3.org/2000/svg"
   xmlns:svg="http://www.w3.org/2000/svg"
   xmlns:rdf="http://www.w3.org/1999/02/22-rdf-syntax-ns#"
   xmlns:cc="http://creativecommons.org/ns#"
   xmlns:dc="http://purl.org/dc/elements/1.1/">
  <defs
     id="defs2" />
  <metadata
     id="metadata5">
    <rdf:RDF>
      <cc:Work
         rdf:about="">
        <dc:format>image/svg+xml</dc:format>
        <dc:type
           rdf:resource="http://purl.org/dc/dcmitype/StillImage" />
      </cc:Work>
    </rdf:RDF>
  </metadata>
  <g
     id="layer1"
     transform="translate(-30.369294,-13.852401)">
    <path
       style="fill:#ff0000;fill-opacity:1;stroke:none;stroke-width:0.5;stroke-linecap:butt;stroke-linejoin:miter;stroke-miterlimit:4;stroke-dasharray:none;stroke-opacity:1"
       d="M 62.041675,14.500575 46.328871,38.998743 44.754453,53.705366 57.464402,46.140927 73.177206,21.642758"
       id="path835" />
    <path
       style="fill:#7a492c;fill-opacity:1;stroke:none;stroke-width:0.265;stroke-linecap:butt;stroke-linejoin:miter;stroke-miterlimit:4;stroke-dasharray:none;stroke-opacity:1"
       d="m 46.238746,39.741181 -0.711578,6.838289 5.361489,3.505306 5.921975,-3.554883 z"
       id="path867" />
    <circle
       style="fill:#ff0000;fill-opacity:1;fill-rule:evenodd;stroke:#000000;stroke-width:1;stroke-linecap:round;stroke-linejoin:round;stroke-miterlimit:4;stroke-dasharray:none"
       id="path837"
       d="m 73.211048,7.9433783 a 6.614583,1.3229166 0 0 1 -6.873495,1.1377279 6.614583,1.3229166 0 0 1 -6.28594,-1.266373"
       transform="rotate(32.67558)" />
    <circle
       style="fill:#7a492c;fill-opacity:1;fill-rule:evenodd;stroke:#000000;stroke-width:1;stroke-linecap:round;stroke-linejoin:round;stroke-miterlimit:4;stroke-dasharray:none"
       id="path837-4"
       d="m 69.956701,14.428026 a 3.3248177,0.66496354 0 0 1 -3.318386,0.572651 3.3248177,0.66496354 0 0 1 -3.273643,-0.582862"
       transform="rotate(32.67558)" />
    <path
       style="fill:none;fill-opacity:1;stroke:#000000;stroke-width:1;stroke-linecap:butt;stroke-linejoin:miter;stroke-miterlimit:4;stroke-dasharray:none;stroke-opacity:1"
       d="M 62.041675,14.500575 46.328871,38.998743 44.754453,53.705366 57.464402,46.140927 73.177206,21.642758"
       id="path865" />
    <path
       style="fill:#ff0000;fill-opacity:1;fill-rule:nonzero;stroke:none;stroke-width:0.264999;stroke-linecap:round;stroke-linejoin:round;stroke-miterlimit:4;stroke-dasharray:none"
       id="path998"
       d="m 30.468386,50.967655 c -0.14319,0 0.118626,0.260111 0.188793,0.383869 0.221848,0.391297 0.493958,0.709319 0.815963,1.010151 0.257391,0.240466 0.421619,0.383172 0.745021,0.547381 0.631019,0.320402 1.399354,0.390345 2.086439,0.363236 0.256785,-0.01013 0.511576,-0.06091 0.763036,-0.115036 0.893014,-0.192223 1.699344,-0.598686 2.402149,-1.213277 0.939999,-0.82201 1.573701,-1.841525 2.21911,-2.908852 0.244516,-0.40436 0.463931,-0.823146 0.673756,-1.247278 0.395212,-0.798859 0.876601,-1.939215 1.183121,-2.782948 0.31409,-0.864567 0.591013,-1.752196 0.764461,-2.661109 0.07951,-0.416629 0.138409,-0.838603 0.172721,-1.261704 0.03277,-0.404081 0.04433,-0.810839 0.02803,-1.215896 -0.05981,-1.486701 -0.464067,-3.155915 -1.275297,-4.396057 -0.189334,-0.28944 -0.402531,-0.562145 -0.641787,-0.809967 -0.226466,-0.234575 -0.4792,-0.448577 -0.748341,-0.629922 -0.409461,-0.275896 -1.130609,-0.604321 -1.636193,-0.603619 -0.511927,7.1e-4 -1.031537,0.05033 -1.524439,0.195153 -0.630207,0.18516 -1.118481,0.693985 -1.530157,1.172646 -0.230607,0.26813 -0.395638,0.586679 -0.561714,0.900073 -0.612085,1.155038 -0.879275,2.490097 -0.976396,3.795282 -0.02459,0.330474 -0.0357,0.662139 -0.03944,0.993569 -0.0171,1.516442 0.03806,3.037017 0.300042,4.532033 0.174121,0.993633 0.237395,1.204139 0.515698,2.156497 0.0945,0.323378 0.215924,0.638563 0.332591,0.954416 0.107059,0.289829 0.225712,0.574816 0.338459,0.862269 0.328559,0.837679 0.646684,1.679691 1.082472,2.465037 0.165084,0.297505 0.34334,0.586539 0.527442,0.872042 0.652148,1.011344 1.413422,1.944815 2.298861,2.741909 0.464368,0.418038 0.71503,0.586911 1.209195,0.962222 0.8623,0.654904 1.801882,1.185426 2.796778,1.58257 0.635341,0.253618 0.85051,0.308171 1.503051,0.49142 1.197811,0.336374 2.433097,0.445695 3.671834,0.387739 0.65521,-0.03065 1.106301,-0.148303 1.745182,-0.314196 1.208906,-0.313907 2.351636,-0.854427 3.446868,-1.469849 0.565967,-0.318024 1.015549,-0.620573 1.568285,-0.960212 1.562615,-0.960179 2.768679,-2.389876 3.966901,-3.783783 0.637184,-0.741245 1.240031,-1.513384 1.912973,-2.22068 0.481846,-0.506445 0.621948,-0.63538 0.833012,-0.59436 0.211064,0.04102 -0.18263,-0.07731 0.254141,0.09734 0.436773,0.174652 1.580078,0.654664 2.415584,0.814043 0.177417,0.03384 0.355971,0.07326 0.536451,0.07334 0.520431,2.31e-4 1.19492,-0.04878 1.683499,-0.112026 0.193334,-0.02503 0.381893,-0.08111 0.571515,-0.127856 0.289801,-0.07145 0.896354,-0.238099 1.184753,-0.339472 0.174429,-0.06131 0.349483,-0.124808 0.515403,-0.206938 0.372237,-0.184256 0.566842,-0.283035 0.89277,-0.545907 0.1437,-0.115901 0.271838,-0.251554 0.407707,-0.377396 0.231096,-0.214044 0.559603,-0.511669 0.778218,-0.741928 0.124039,-0.13065 0.241387,-0.268311 0.358914,-0.405225 0.663205,-0.772607 1.103313,-1.707467 1.6054,-2.595715 0.654654,-1.158156 1.132577,-2.405421 1.505001,-3.68796 0.190354,-0.655535 0.352792,-1.319524 0.5082,-1.984901 0.05475,-0.234416 0.114763,-0.467795 0.157737,-0.70489 0.04354,-0.240237 0.122574,-0.482284 0.101589,-0.725821 -0.02628,-0.305025 -0.135653,-0.531368 -0.240268,-0.883653 -0.104615,-0.352285 -0.999401,-0.575378 -1.218046,-0.308804 0,0 0.106358,-0.109802 0,0 -0.106358,0.109802 -0.466734,0.402632 -0.638149,0.658817 -0.136189,0.203534 -0.18686,0.457326 -0.265565,0.691794 -0.283665,0.845031 -0.444435,1.730888 -0.700964,2.584495 -0.143257,0.47669 -0.200076,0.69582 -0.372402,1.160979 -0.265643,0.71704 -0.602039,1.402202 -0.974719,2.064165 -0.415687,0.738354 -0.778504,1.522127 -1.325921,2.166445 -0.180979,0.213015 -0.311697,0.359255 -0.527414,0.536327 -0.370009,0.303723 -0.806913,0.48705 -1.243539,0.657069 -0.526624,0.205064 -1.327231,0.317183 -1.61563,0.255452 -0.304003,-0.06507 -0.597727,-0.168649 -0.942286,-0.253299 -0.543174,-0.133445 -1.034083,-0.428583 -1.535058,-0.676909 -0.23578,-0.116873 -0.813019,-0.395942 -1.057824,-0.434948 -0.41299,-0.0658 -0.833535,-0.09931 -1.250883,-0.08025 -0.587956,0.02686 -1.288871,0.440531 -1.752444,0.785538 -0.544308,0.405093 -0.623891,0.478753 -1.129782,0.970383 -0.748681,0.727579 -1.378642,1.566962 -2.05266,2.368167 -0.992545,1.179838 -1.991766,2.392496 -3.286075,3.222835 -1.297617,0.832461 -2.635187,1.662085 -4.132739,2.013772 -1.27022,0.2983 -0.05386,0.03258 -1.234797,0.195686 -0.04243,0.0059 -0.08105,0.03419 -0.123826,0.03533 -0.622381,0.01665 -1.24562,-0.05232 -1.852298,-0.189275 -1.256262,-0.283597 -2.365401,-0.651584 -3.403839,-1.484191 -0.493665,-0.395814 -1.006296,-0.775528 -1.46472,-1.217204 -0.533712,-0.514217 -1.005407,-1.093217 -1.434668,-1.703558 -0.151401,-0.215268 -0.301006,-0.431635 -0.438204,-0.656766 -0.13619,-0.223475 -0.256855,-0.456956 -0.38123,-0.687863 -0.510454,-0.947677 -0.963554,-1.929095 -1.269324,-2.971232 -0.225159,-0.767394 -0.300427,-0.99279 -0.442323,-1.794374 -0.22931,-1.29539 -0.293427,-2.621783 -0.197222,-3.93354 0.0788,-1.074401 0.155969,-2.297396 0.724692,-3.235164 0.0601,-0.09909 0.1345,-0.188256 0.214742,-0.270984 0.05006,-0.05161 0.11018,-0.09477 0.17305,-0.128785 0.02214,-0.01198 0.09951,-0.005 0.07459,-0.0052 -0.548347,-0.0046 -0.420782,-0.128221 -0.03255,0.0484 0.123469,0.05617 0.225123,0.153553 0.318783,0.252905 0.462515,0.490627 0.735785,1.133883 0.914706,1.786561 0.07003,0.255441 0.135196,0.513895 0.16998,0.777145 0.03712,0.280956 0.05497,0.566176 0.04499,0.849599 -0.03223,0.915102 -0.03851,1.106151 -0.231373,2.034153 -0.347418,1.671682 -0.987991,3.265578 -1.821041,4.732252 -0.192026,0.338081 -0.400109,0.667467 -0.611962,0.993006 -0.327427,0.503136 -0.657339,0.954912 -1.027326,1.41959 -0.262276,0.329406 -0.517618,0.637855 -0.828647,0.918064 -0.134252,0.120951 -0.276981,0.2311 -0.424134,0.335059 -0.22111,0.156207 -0.338953,0.280752 -0.554926,0.409789 -0.191731,0.114553 -0.721066,0.01028 -0.925296,-0.09166 -0.08981,-0.04483 -0.169826,-0.110063 -0.2479,-0.174097 -0.250363,-0.20534 -0.490349,-0.425089 -0.710872,-0.665453 -0.06767,-0.07376 -0.12607,-0.156475 -0.194124,-0.229836 -0.11155,-0.120251 -0.237573,-0.224835 -0.351252,-0.343012 -0.324414,-0.337252 -0.902291,-0.0253 -0.90376,0.290822 -0.0013,0.288154 0.232667,0.596001 0.09909,0.596001 -10e-7,0 -2e-6,0 -3e-6,0 z" />
    <path
       style="fill:none;fill-opacity:1;stroke:#000000;stroke-width:1;stroke-linecap:butt;stroke-linejoin:miter;stroke-miterlimit:4;stroke-dasharray:none;stroke-opacity:1"
       d="M 64.874404,17.689201 49.1616,42.187369 m 4.044359,2.573006 15.712804,-24.498169"
       id="path865-7" />
    <ellipse
       style="fill:#ff0000;fill-opacity:1;fill-rule:evenodd;stroke:#000000;stroke-width:1;stroke-linecap:round;stroke-linejoin:round;stroke-miterlimit:4;stroke-dasharray:none"
       id="path837-6"
       transform="rotate(32.67558)"
       cx="66.66568"
       cy="-21.261393"
       rx="6.614583"
       ry="1.3229166" />
    <text
       xml:space="preserve"
       style="font-size:10.0261px;line-height:1.25;font-family:sans-serif;letter-spacing:0px;fill:#ff0000;fill-opacity:1;stroke-width:0.264583"
       x="32.300835"
       y="23.570097"
       id="text10607"
       transform="rotate(18.43294)"><tspan
         id="tspan10605"
         style="font-style:normal;font-variant:normal;font-weight:normal;font-stretch:normal;font-size:40.1042px;font-family:'Libertinus Mono';-inkscape-font-specification:'Libertinus Mono, Normal';font-variant-ligatures:normal;font-variant-caps:normal;font-variant-numeric:normal;font-variant-east-asian:normal;fill:#ff0000;fill-opacity:1;stroke-width:0.264583"
         x="32.300835"
         y="23.570097">*</tspan></text>
  </g>
</svg>
