<?xml version="1.0" encoding="UTF-8" standalone="no"?>
<svg
   width="44.737934mm"
   height="44.653866mm"
   viewBox="0 0 44.737934 44.653865"
   version="1.1"
   id="svg8"
   xmlns="http://www.w3.org/2000/svg"
   xmlns:svg="http://www.w3.org/2000/svg"
   xmlns:rdf="http://www.w3.org/1999/02/22-rdf-syntax-ns#"
   xmlns:cc="http://creativecommons.org/ns#"
   xmlns:dc="http://purl.org/dc/elements/1.1/">
  <defs
     id="defs2" />
  <metadata
     id="metadata5">
    <rdf:RDF>
      <cc:Work
         rdf:about="">
        <dc:format>image/svg+xml</dc:format>
        <dc:type
           rdf:resource="http://purl.org/dc/dcmitype/StillImage" />
      </cc:Work>
    </rdf:RDF>
  </metadata>
  <ellipse
     style="fill:none;fill-opacity:0.98;stroke:#ff0000;stroke-width:3.00462;stroke-linecap:round;stroke-linejoin:round;stroke-miterlimit:4;stroke-dasharray:none;stroke-opacity:0.99;paint-order:normal"
     id="path1364"
     cx="24.861027"
     cy="31.941298"
     rx="20.589149"
     ry="11.030726"
     transform="matrix(1,0,-0.07830849,0.99692918,0,0)" />
  <g
     id="g1495"
     transform="translate(0.82989899,-0.78645823)"
     style="display:inline">
    <path
       style="fill:#ff0000;fill-opacity:1;stroke:none;stroke-width:0.5;stroke-linecap:butt;stroke-linejoin:miter;stroke-miterlimit:4;stroke-dasharray:none;stroke-opacity:1"
       d="M 31.978845,1.654789 16.266041,26.152957 14.691623,40.85958 27.401572,33.295141 43.114376,8.796972"
       id="path835" />
    <path
       style="fill:#7a492c;fill-opacity:1;stroke:none;stroke-width:0.265;stroke-linecap:butt;stroke-linejoin:miter;stroke-miterlimit:4;stroke-dasharray:none;stroke-opacity:1"
       d="m 16.175916,26.895395 -0.711578,6.838289 5.361489,3.505306 5.921975,-3.554883 z"
       id="path867" />
    <path
       id="path837-4-3"
       style="fill:#7a492c;fill-rule:evenodd;stroke:#000000;stroke-linecap:round;stroke-linejoin:round"
       transform="rotate(32.67558)"
       d="m 37.716382,19.845571 a 3.3248177,0.66496354 0 0 1 -3.318386,0.572651 3.3248177,0.66496354 0 0 1 -3.273642,-0.582861" />
    <path
       style="fill:none;fill-opacity:1;stroke:#000000;stroke-width:1;stroke-linecap:butt;stroke-linejoin:miter;stroke-miterlimit:4;stroke-dasharray:none;stroke-opacity:1"
       d="M 31.978845,1.654789 16.266041,26.152957 14.691623,40.85958 27.401572,33.295141 43.114376,8.796972"
       id="path865" />
    <ellipse
       style="display:inline;fill:#ff0000;fill-opacity:1;fill-rule:evenodd;stroke:#000000;stroke-width:1;stroke-linecap:round;stroke-linejoin:round;stroke-miterlimit:4;stroke-dasharray:none"
       id="path837-6"
       transform="rotate(32.67558)"
       cx="34.425362"
       cy="-15.843848"
       rx="6.614583"
       ry="1.3229166" />
    <path
       id="path837-7"
       style="fill:#ff0000;fill-rule:evenodd;stroke:#000000;stroke-linecap:round;stroke-linejoin:round"
       transform="rotate(32.67558)"
       d="m 40.970729,13.360923 a 6.614583,1.3229166 0 0 1 -6.873495,1.137728 6.614583,1.3229166 0 0 1 -6.285939,-1.266373" />
    <path
       style="fill:none;fill-opacity:1;stroke:#000000;stroke-width:1;stroke-linecap:butt;stroke-linejoin:miter;stroke-miterlimit:4;stroke-dasharray:none;stroke-opacity:1"
       d="M 34.811574,4.843415 19.09877,29.341583 M 23.143129,31.914589 38.855933,7.41642"
       id="path865-7" />
  </g>
</svg>
