<?xml version="1.0" encoding="UTF-8" standalone="no"?>
<svg
   width="14mm"
   height="8mm"
   viewBox="0 0 14 7.9999999"
   version="1.1"
   id="svg8"
   xmlns="http://www.w3.org/2000/svg"
   xmlns:svg="http://www.w3.org/2000/svg"
   xmlns:rdf="http://www.w3.org/1999/02/22-rdf-syntax-ns#"
   xmlns:cc="http://creativecommons.org/ns#"
   xmlns:dc="http://purl.org/dc/elements/1.1/">
  <defs
     id="defs2" />
  <metadata
     id="metadata5">
    <rdf:RDF>
      <cc:Work
         rdf:about="">
        <dc:format>image/svg+xml</dc:format>
        <dc:type
           rdf:resource="http://purl.org/dc/dcmitype/StillImage" />
      </cc:Work>
    </rdf:RDF>
  </metadata>
  <path
     d="M 2.627415,5.384265 Q 2.894779,5.317365 3.239818,5.106723 L 3.429659,5.865369 Q 3.091317,6.131152 2.536537,6.269978 1.924941,6.423021 1.567269,6.185798 1.212103,5.944401 1.057387,5.326121 L 0.60662,3.524757 0.118681,3.646857 0.010798,3.215732 0.48696,2.734344 0.58369,1.872026 1.235389,1.708947 1.434429,2.504355 2.480491,2.242592 2.672004,3.007922 1.625942,3.269684 2.076709,5.071049 q 0.05436,0.217233 0.200599,0.29073 0.149581,0.07266 0.350104,0.02248 z"
     style="font-style:normal;font-variant:normal;font-weight:bold;font-stretch:normal;font-size:7.05556px;line-height:1.25;font-family:'Open Sans';-inkscape-font-specification:'Open Sans Bold';letter-spacing:-0.555625px;fill:#ff0000;fill-opacity:0.99"
     id="path874" />
  <path
     d="M 5.008866,2.612213 Q 4.675801,2.639413 4.504338,2.86773 4.332594,3.092608 4.336816,3.482856 L 5.806424,3.362821 Q 5.767864,2.975378 5.555039,2.781911 5.341932,2.585009 5.008866,2.612213 Z M 5.420701,5.834665 Q 4.493612,5.910385 3.929908,5.4414 3.366203,4.972414 3.289639,4.035023 3.210829,3.070164 3.648635,2.50555 4.089592,1.937222 4.941141,1.867669 5.754919,1.801199 6.246024,2.227727 6.737128,2.654251 6.803876,3.471463 l 0.04151,0.508182 -2.475671,0.202207 q 0.05363,0.444974 0.321324,0.675439 0.267697,0.230465 0.714073,0.194006 0.3468,-0.02833 0.649941,-0.125674 0.30314,-0.09735 0.626738,-0.28278 l 0.06619,0.810344 Q 6.484506,5.61297 6.177371,5.703731 5.870517,5.797921 5.420707,5.834665 Z"
     style="font-style:normal;font-variant:normal;font-weight:bold;font-stretch:normal;font-size:7.05556px;line-height:1.25;font-family:'Open Sans';-inkscape-font-specification:'Open Sans Bold';letter-spacing:-0.555625px;fill:#ff0000;fill-opacity:0.99"
     id="path876" />
  <path
     d="M 8.300231,3.810537 7.28634,1.795238 8.47034,1.933142 9.071016,3.237851 9.962317,2.106918 11.146316,2.244823 9.682704,3.971559 10.75889,6.077355 9.571469,5.939052 8.919959,4.534776 7.959723,5.751326 6.775724,5.613421 Z"
     style="font-style:normal;font-variant:normal;font-weight:bold;font-stretch:normal;font-size:7.05556px;line-height:1.25;font-family:'Open Sans';-inkscape-font-specification:'Open Sans Bold';letter-spacing:-0.555625px;fill:#ff0000;fill-opacity:0.99"
     id="path878" />
  <path
     d="m 12.548035,5.871178 q 0.265223,0.07495 0.669322,0.06384 l -0.212659,0.752568 q -0.42572,0.06228 -0.976056,-0.09323 -0.606695,-0.171439 -0.79899,-0.555138 -0.188043,-0.386077 -0.01473,-0.999403 l 0.50495,-1.786934 -0.484031,-0.136777 0.120851,-0.42767 0.652522,-0.180772 0.512836,-0.699964 0.646478,0.182681 -0.222964,0.789035 1.037681,0.293227 -0.214533,0.759198 -1.037681,-0.293226 -0.504949,1.786933 q -0.06089,0.215493 0.02941,0.351993 0.09362,0.137436 0.29254,0.193645 z"
     style="font-style:normal;font-variant:normal;font-weight:bold;font-stretch:normal;font-size:7.05556px;line-height:1.25;font-family:'Open Sans';-inkscape-font-specification:'Open Sans Bold';letter-spacing:-0.555625px;fill:#ff0000;fill-opacity:0.99"
     id="path880" />
</svg>
